G04*
G04 #@! TF.GenerationSoftware,Altium Limited,Altium Designer,21.2.1 (34)*
G04*
G04 Layer_Color=255*
%FSLAX24Y24*%
%MOIN*%
G70*
G04*
G04 #@! TF.SameCoordinates,2A4B76D5-AD1C-46BA-8FB2-2B46C924C6B9*
G04*
G04*
G04 #@! TF.FilePolarity,Positive*
G04*
G01*
G75*
%ADD71C,0.1000*%
%ADD72R,0.0598X0.0598*%
%ADD73C,0.0598*%
%ADD74R,0.0630X0.0630*%
%ADD75C,0.0630*%
%ADD76R,0.0630X0.0630*%
%ADD77R,0.1000X0.1600*%
%ADD78R,0.1600X0.1000*%
D71*
X31980Y42630D02*
D03*
Y22140D02*
D03*
X52770Y41240D02*
D03*
D72*
X51560Y42740D02*
D03*
X43050D02*
D03*
X46950Y22150D02*
D03*
X38410D02*
D03*
D73*
X50560Y42740D02*
D03*
X49560D02*
D03*
X48560D02*
D03*
X47560D02*
D03*
X46560D02*
D03*
X45560D02*
D03*
X44560D02*
D03*
X41050D02*
D03*
X34050D02*
D03*
X35050D02*
D03*
X36050D02*
D03*
X37050D02*
D03*
X38050D02*
D03*
X39050D02*
D03*
X40050D02*
D03*
X42050D02*
D03*
X51950Y22150D02*
D03*
X50950D02*
D03*
X49950D02*
D03*
X48950D02*
D03*
X47950D02*
D03*
X39410D02*
D03*
X40410D02*
D03*
X41410D02*
D03*
X42410D02*
D03*
X43410D02*
D03*
X44410D02*
D03*
X45410D02*
D03*
D74*
X49750Y25690D02*
D03*
X49740Y26880D02*
D03*
X35420Y33140D02*
D03*
X49740Y28080D02*
D03*
D75*
X50750Y25690D02*
D03*
X51750D02*
D03*
X52750D02*
D03*
X50740Y26880D02*
D03*
X51740D02*
D03*
X52740D02*
D03*
X34420Y33140D02*
D03*
X33420D02*
D03*
X32420D02*
D03*
X50740Y28080D02*
D03*
X51740D02*
D03*
X52740D02*
D03*
X52750Y33260D02*
D03*
Y32260D02*
D03*
Y31260D02*
D03*
X51750Y32260D02*
D03*
Y31260D02*
D03*
D76*
Y33260D02*
D03*
D77*
X30240Y24200D02*
D03*
X27740D02*
D03*
D78*
X29240Y22200D02*
D03*
M02*
