M48
;Layer_Color=9474304
;FILE_FORMAT=2:4
INCH,LZ
;TYPE=PLATED
T1F00S00C0.0100
T2F00S00C0.0150
T3F00S00C0.0402
T4F00S00C0.0433
T6F00S00C0.0700
%
T01
X05009Y03116
X046683Y030627
X04093Y02764
X04041Y0234
X02959Y03537
X03574Y03622
X035Y03786
X03674Y04068
X03989Y03783
X03894Y03405
X03977Y03314
X0412Y03313
X04237Y03218
X04437Y0325
X04439Y03187
X04426Y03311
X04428Y03345
X046667Y033973
X0356Y03249
T02
X0489Y02568
X04913Y02927
X04852Y02998
X04638Y0273
X0454Y023
X04241Y02364
X04172Y02408
X041698Y024908
X039848
X03997Y02361
X03642Y02355
X03643Y0279
X03706Y02785
X03737Y03105
X034886Y030966
X034544Y029154
X03244Y02933
X0319Y02739
X03367Y02573
X028877Y034623
X03405Y04197
X03505
X03706Y04193
X03979Y04201
X04258Y04017
X03998Y03656
X04247Y03278
X04356Y03279
X04291Y0315
X04672Y03526
X04734Y03577
X05011Y03451
X05021Y033896
T03
X04695Y02215
X04795
X04895
X04995
X05095
X05195
X04541
X04441
X04341
X04241
X04141
X04041
X03941
X03841
X03805Y04274
X03705
X03605
X03505
X03405
X03905
X04005
X04105
X04205
X04305
X04456
X04556
X04656
X04756
X04856
X04956
X05056
X05156
T04
X04975Y02569
X05075
X05175
X05275
X05274Y02688
X05174
X05074
X04974
Y02808
X05074
X05174
X05274
X03542Y03314
X03442
X03342
X03242
X05175Y03326
X05275
Y03226
Y03126
X05175
Y03226
T06
X03198Y02214
Y04263
X05277Y04124
M30
