G04*
G04 #@! TF.GenerationSoftware,Altium Limited,Altium Designer,21.2.1 (34)*
G04*
G04 Layer_Color=65535*
%FSLAX24Y24*%
%MOIN*%
G70*
G04*
G04 #@! TF.SameCoordinates,2A4B76D5-AD1C-46BA-8FB2-2B46C924C6B9*
G04*
G04*
G04 #@! TF.FilePolarity,Positive*
G04*
G01*
G75*
%ADD10C,0.0150*%
%ADD11C,0.0050*%
%ADD12C,0.0200*%
%ADD13C,0.0350*%
%ADD14C,0.0098*%
%ADD15C,0.0236*%
%ADD16C,0.0070*%
%ADD17C,0.0079*%
%ADD18C,0.0090*%
%ADD19C,0.0040*%
%ADD20C,0.0100*%
%ADD21C,0.0060*%
%ADD22C,0.0080*%
%ADD23R,0.1000X0.0500*%
G36*
X51960Y38881D02*
X51973D01*
Y38877D01*
X51982D01*
Y38872D01*
X51990D01*
Y38868D01*
X51995D01*
Y38863D01*
X51999D01*
Y38859D01*
X52004D01*
Y38855D01*
X52008D01*
Y38850D01*
X52013D01*
Y38841D01*
X52017D01*
Y38837D01*
X52021D01*
Y38828D01*
X52026D01*
Y38815D01*
X52030D01*
Y38762D01*
X52026D01*
Y38749D01*
X52021D01*
Y38740D01*
X52017D01*
Y38731D01*
X52013D01*
Y38727D01*
X52008D01*
Y38722D01*
X52004D01*
Y38714D01*
X51995D01*
Y38709D01*
X51990D01*
Y38705D01*
X51982D01*
Y38700D01*
X51977D01*
Y38696D01*
X51964D01*
Y38691D01*
X51907D01*
Y38696D01*
X51894D01*
Y38700D01*
X51889D01*
Y38705D01*
X51880D01*
Y38709D01*
X51876D01*
Y38714D01*
X51871D01*
Y38718D01*
X51867D01*
Y38722D01*
X51863D01*
Y38727D01*
X51858D01*
Y38731D01*
X51854D01*
Y38740D01*
X51849D01*
Y38749D01*
X51845D01*
Y38758D01*
X51841D01*
Y38815D01*
X51845D01*
Y38828D01*
X51849D01*
Y38837D01*
X51854D01*
Y38846D01*
X51858D01*
Y38850D01*
X51863D01*
Y38855D01*
X51867D01*
Y38859D01*
X51871D01*
Y38863D01*
X51876D01*
Y38868D01*
X51880D01*
Y38872D01*
X51889D01*
Y38877D01*
X51898D01*
Y38881D01*
X51911D01*
Y38885D01*
X51960D01*
Y38881D01*
D02*
G37*
G36*
X51012Y38965D02*
X51069D01*
Y38960D01*
X51104D01*
Y38956D01*
X51135D01*
Y38952D01*
X51157D01*
Y38947D01*
X51184D01*
Y38943D01*
X51201D01*
Y38938D01*
X51219D01*
Y38934D01*
X51237D01*
Y38930D01*
X51254D01*
Y38925D01*
X51268D01*
Y38921D01*
X51285D01*
Y38916D01*
X51298D01*
Y38912D01*
X51312D01*
Y38907D01*
X51325D01*
Y38903D01*
X51338D01*
Y38899D01*
X51347D01*
Y38894D01*
X51360D01*
Y38890D01*
X51373D01*
Y38885D01*
X51382D01*
Y38881D01*
X51391D01*
Y38877D01*
X51404D01*
Y38872D01*
X51413D01*
Y38868D01*
X51422D01*
Y38863D01*
X51431D01*
Y38859D01*
X51439D01*
Y38855D01*
X51448D01*
Y38850D01*
X51457D01*
Y38846D01*
X51466D01*
Y38841D01*
X51475D01*
Y38837D01*
X51484D01*
Y38833D01*
X51492D01*
Y38828D01*
X51501D01*
Y38824D01*
X51510D01*
Y38819D01*
X51514D01*
Y38815D01*
X51523D01*
Y38810D01*
X51532D01*
Y38806D01*
X51536D01*
Y38802D01*
X51545D01*
Y38797D01*
X51554D01*
Y38793D01*
X51558D01*
Y38788D01*
X51567D01*
Y38784D01*
X51572D01*
Y38780D01*
X51581D01*
Y38775D01*
X51585D01*
Y38771D01*
X51594D01*
Y38766D01*
X51598D01*
Y38762D01*
X51603D01*
Y38758D01*
X51611D01*
Y38753D01*
X51616D01*
Y38749D01*
X51620D01*
Y38744D01*
X51629D01*
Y38740D01*
X51633D01*
Y38736D01*
X51638D01*
Y38731D01*
X51647D01*
Y38727D01*
X51651D01*
Y38722D01*
X51655D01*
Y38718D01*
X51660D01*
Y38714D01*
X51669D01*
Y38709D01*
X51673D01*
Y38705D01*
X51678D01*
Y38700D01*
X51682D01*
Y38696D01*
X51686D01*
Y38691D01*
X51691D01*
Y38687D01*
X51700D01*
Y38683D01*
X51704D01*
Y38678D01*
X51708D01*
Y38674D01*
X51713D01*
Y38669D01*
X51717D01*
Y38665D01*
X51722D01*
Y38661D01*
X51726D01*
Y38656D01*
X51730D01*
Y38652D01*
X51735D01*
Y38647D01*
X51739D01*
Y38643D01*
X51744D01*
Y38639D01*
X51748D01*
Y38634D01*
X51752D01*
Y38630D01*
X51757D01*
Y38625D01*
X51761D01*
Y38621D01*
X51766D01*
Y38617D01*
X51770D01*
Y38612D01*
X51774D01*
Y38608D01*
X51779D01*
Y38599D01*
X51783D01*
Y38594D01*
X51788D01*
Y38590D01*
X51792D01*
Y38586D01*
X51797D01*
Y38581D01*
X51801D01*
Y38577D01*
X51805D01*
Y38568D01*
X51810D01*
Y38564D01*
X51814D01*
Y38559D01*
X51819D01*
Y38555D01*
X51823D01*
Y38550D01*
X51827D01*
Y38542D01*
X51832D01*
Y38537D01*
X51836D01*
Y38533D01*
X51841D01*
Y38524D01*
X51845D01*
Y38520D01*
X51849D01*
Y38515D01*
X51854D01*
Y38506D01*
X51858D01*
Y38502D01*
X51863D01*
Y38493D01*
X51867D01*
Y38489D01*
X51871D01*
Y38480D01*
X51876D01*
Y38475D01*
X51880D01*
Y38467D01*
X51885D01*
Y38462D01*
X51889D01*
Y38453D01*
X51894D01*
Y38449D01*
X51898D01*
Y38440D01*
X51902D01*
Y38431D01*
X51907D01*
Y38427D01*
X51911D01*
Y38418D01*
X51916D01*
Y38409D01*
X51920D01*
Y38401D01*
X51924D01*
Y38392D01*
X51929D01*
Y38383D01*
X51933D01*
Y38378D01*
X51938D01*
Y38370D01*
X51942D01*
Y38361D01*
X51946D01*
Y38348D01*
X51951D01*
Y38339D01*
X51955D01*
Y38330D01*
X51960D01*
Y38321D01*
X51964D01*
Y38312D01*
X51968D01*
Y38299D01*
X51973D01*
Y38290D01*
X51977D01*
Y38277D01*
X51982D01*
Y38268D01*
X51986D01*
Y38255D01*
X51990D01*
Y38242D01*
X51995D01*
Y38229D01*
X51999D01*
Y38215D01*
X52004D01*
Y38202D01*
X52008D01*
Y38184D01*
X52013D01*
Y38167D01*
X52017D01*
Y38149D01*
X52021D01*
Y38132D01*
X52026D01*
Y38110D01*
X52030D01*
Y38088D01*
X52035D01*
Y38061D01*
X52039D01*
Y38026D01*
X52043D01*
Y37977D01*
X52048D01*
Y37845D01*
X52043D01*
Y37792D01*
X52039D01*
Y37761D01*
X52035D01*
Y37735D01*
X52030D01*
Y37708D01*
X52026D01*
Y37691D01*
X52021D01*
Y37669D01*
X52017D01*
Y37651D01*
X52013D01*
Y37638D01*
X52008D01*
Y37620D01*
X52004D01*
Y37607D01*
X51999D01*
Y37594D01*
X51995D01*
Y37581D01*
X51990D01*
Y37567D01*
X51986D01*
Y37554D01*
X51982D01*
Y37541D01*
X51977D01*
Y37532D01*
X51973D01*
Y37519D01*
X51968D01*
Y37510D01*
X51964D01*
Y37501D01*
X51960D01*
Y37488D01*
X51955D01*
Y37479D01*
X51951D01*
Y37470D01*
X51946D01*
Y37462D01*
X51942D01*
Y37453D01*
X51938D01*
Y37444D01*
X51933D01*
Y37435D01*
X51929D01*
Y37426D01*
X51924D01*
Y37417D01*
X51920D01*
Y37413D01*
X51916D01*
Y37404D01*
X51911D01*
Y37395D01*
X51907D01*
Y37387D01*
X51902D01*
Y37382D01*
X51898D01*
Y37373D01*
X51894D01*
Y37365D01*
X51889D01*
Y37360D01*
X51885D01*
Y37351D01*
X51880D01*
Y37347D01*
X51876D01*
Y37338D01*
X51871D01*
Y37334D01*
X51867D01*
Y37325D01*
X51863D01*
Y37320D01*
X51858D01*
Y37312D01*
X51854D01*
Y37307D01*
X51849D01*
Y37303D01*
X51845D01*
Y37294D01*
X51841D01*
Y37290D01*
X51836D01*
Y37285D01*
X51832D01*
Y37276D01*
X51827D01*
Y37272D01*
X51823D01*
Y37268D01*
X51819D01*
Y37263D01*
X51814D01*
Y37254D01*
X51810D01*
Y37250D01*
X51805D01*
Y37246D01*
X51801D01*
Y37241D01*
X51797D01*
Y37237D01*
X51792D01*
Y37228D01*
X51788D01*
Y37223D01*
X51783D01*
Y37219D01*
X51779D01*
Y37215D01*
X51774D01*
Y37210D01*
X51770D01*
Y37206D01*
X51766D01*
Y37201D01*
X51761D01*
Y37197D01*
X51757D01*
Y37193D01*
X51752D01*
Y37188D01*
X51748D01*
Y37184D01*
X51744D01*
Y37179D01*
X51739D01*
Y37175D01*
X51735D01*
Y37171D01*
X51730D01*
Y37166D01*
X51726D01*
Y37162D01*
X51722D01*
Y37157D01*
X51717D01*
Y37153D01*
X51713D01*
Y37149D01*
X51708D01*
Y37144D01*
X51704D01*
Y37140D01*
X51700D01*
Y37135D01*
X51695D01*
Y37131D01*
X51691D01*
Y37127D01*
X51686D01*
Y37122D01*
X51678D01*
Y37118D01*
X51673D01*
Y37113D01*
X51669D01*
Y37109D01*
X51664D01*
Y37104D01*
X51660D01*
Y37100D01*
X51651D01*
Y37096D01*
X51647D01*
Y37091D01*
X51642D01*
Y37087D01*
X51638D01*
Y37082D01*
X51629D01*
Y37078D01*
X51625D01*
Y37074D01*
X51620D01*
Y37069D01*
X51611D01*
Y37065D01*
X51607D01*
Y37060D01*
X51598D01*
Y37056D01*
X51594D01*
Y37052D01*
X51589D01*
Y37047D01*
X51581D01*
Y37043D01*
X51576D01*
Y37038D01*
X51567D01*
Y37034D01*
X51563D01*
Y37030D01*
X51554D01*
Y37025D01*
X51550D01*
Y37021D01*
X51541D01*
Y37016D01*
X51532D01*
Y37012D01*
X51528D01*
Y37007D01*
X51519D01*
Y37003D01*
X51510D01*
Y36999D01*
X51501D01*
Y36994D01*
X51497D01*
Y36990D01*
X51488D01*
Y36985D01*
X51479D01*
Y36981D01*
X51470D01*
Y36977D01*
X51462D01*
Y36972D01*
X51453D01*
Y36968D01*
X51444D01*
Y36963D01*
X51435D01*
Y36959D01*
X51426D01*
Y36955D01*
X51417D01*
Y36950D01*
X51409D01*
Y36946D01*
X51395D01*
Y36941D01*
X51387D01*
Y36937D01*
X51378D01*
Y36933D01*
X51365D01*
Y36928D01*
X51351D01*
Y36924D01*
X51342D01*
Y36919D01*
X51329D01*
Y36915D01*
X51316D01*
Y36910D01*
X51303D01*
Y36906D01*
X51290D01*
Y36902D01*
X51276D01*
Y36897D01*
X51259D01*
Y36893D01*
X51245D01*
Y36888D01*
X51228D01*
Y36884D01*
X51210D01*
Y36880D01*
X51188D01*
Y36875D01*
X51171D01*
Y36871D01*
X51144D01*
Y36866D01*
X51118D01*
Y36862D01*
X51082D01*
Y36858D01*
X51038D01*
Y36853D01*
X50862D01*
Y36858D01*
X50813D01*
Y36862D01*
X50778D01*
Y36866D01*
X50752D01*
Y36871D01*
X50730D01*
Y36875D01*
X50708D01*
Y36880D01*
X50686D01*
Y36884D01*
X50668D01*
Y36888D01*
X50650D01*
Y36893D01*
X50633D01*
Y36897D01*
X50620D01*
Y36902D01*
X50606D01*
Y36906D01*
X50589D01*
Y36910D01*
X50575D01*
Y36915D01*
X50562D01*
Y36919D01*
X50553D01*
Y36924D01*
X50540D01*
Y36928D01*
X50527D01*
Y36933D01*
X50518D01*
Y36937D01*
X50505D01*
Y36941D01*
X50496D01*
Y36946D01*
X50487D01*
Y36950D01*
X50474D01*
Y36955D01*
X50465D01*
Y36959D01*
X50456D01*
Y36963D01*
X50448D01*
Y36968D01*
X50439D01*
Y36972D01*
X50430D01*
Y36977D01*
X50417D01*
Y36981D01*
X50412D01*
Y36985D01*
X50403D01*
Y36990D01*
X50395D01*
Y36994D01*
X50386D01*
Y36999D01*
X50377D01*
Y37003D01*
X50368D01*
Y37007D01*
X50359D01*
Y37012D01*
X50355D01*
Y37016D01*
X50346D01*
Y37021D01*
X50337D01*
Y37025D01*
X50333D01*
Y37030D01*
X50324D01*
Y37034D01*
X50315D01*
Y37038D01*
X50311D01*
Y37043D01*
X50302D01*
Y37047D01*
X50298D01*
Y37052D01*
X50289D01*
Y37056D01*
X50284D01*
Y37060D01*
X50276D01*
Y37065D01*
X50271D01*
Y37069D01*
X50262D01*
Y37074D01*
X50258D01*
Y37078D01*
X50249D01*
Y37082D01*
X50245D01*
Y37087D01*
X50240D01*
Y37091D01*
X50232D01*
Y37096D01*
X50227D01*
Y37100D01*
X50218D01*
Y37104D01*
X50214D01*
Y37109D01*
X50210D01*
Y37113D01*
X50205D01*
Y37118D01*
X50196D01*
Y37122D01*
X50192D01*
Y37127D01*
X50187D01*
Y37131D01*
X50179D01*
Y37135D01*
X50174D01*
Y37140D01*
X50170D01*
Y37144D01*
X50165D01*
Y37149D01*
X50161D01*
Y37153D01*
X50152D01*
Y37157D01*
X50148D01*
Y37162D01*
X50143D01*
Y37166D01*
X50139D01*
Y37171D01*
X50135D01*
Y37175D01*
X50130D01*
Y37179D01*
X50121D01*
Y37184D01*
X50117D01*
Y37188D01*
X50113D01*
Y37193D01*
X50108D01*
Y37197D01*
X50104D01*
Y37201D01*
X50099D01*
Y37206D01*
X50095D01*
Y37210D01*
X50091D01*
Y37215D01*
X50086D01*
Y37219D01*
X50082D01*
Y37223D01*
X50077D01*
Y37228D01*
X50073D01*
Y37232D01*
X50064D01*
Y37237D01*
X50060D01*
Y37241D01*
X50055D01*
Y37246D01*
X50051D01*
Y37250D01*
X50046D01*
Y37254D01*
X50042D01*
Y37259D01*
X50038D01*
Y37263D01*
X50033D01*
Y37268D01*
X50029D01*
Y37276D01*
X50024D01*
Y37281D01*
X50020D01*
Y37285D01*
X50016D01*
Y37290D01*
X50011D01*
Y37294D01*
X50007D01*
Y37298D01*
X50002D01*
Y37303D01*
X49998D01*
Y37307D01*
X49994D01*
Y37312D01*
X49989D01*
Y37316D01*
X49985D01*
Y37320D01*
X49980D01*
Y37325D01*
X49976D01*
Y37334D01*
X49971D01*
Y37338D01*
X49967D01*
Y37343D01*
X49963D01*
Y37347D01*
X49958D01*
Y37351D01*
X49954D01*
Y37356D01*
X49949D01*
Y37365D01*
X49945D01*
Y37369D01*
X49941D01*
Y37373D01*
X49936D01*
Y37378D01*
X49932D01*
Y37382D01*
X49927D01*
Y37391D01*
X49923D01*
Y37395D01*
X49919D01*
Y37400D01*
X49914D01*
Y37404D01*
X49910D01*
Y37413D01*
X49905D01*
Y37417D01*
X49901D01*
Y37422D01*
X49897D01*
Y37426D01*
X49892D01*
Y37435D01*
X49888D01*
Y37439D01*
X49883D01*
Y37444D01*
X49879D01*
Y37453D01*
X49875D01*
Y37457D01*
X49870D01*
Y37462D01*
X49866D01*
Y37470D01*
X49861D01*
Y37475D01*
X49857D01*
Y37484D01*
X49852D01*
Y37488D01*
X49848D01*
Y37492D01*
X49844D01*
Y37501D01*
X49839D01*
Y37506D01*
X49835D01*
Y37514D01*
X49830D01*
Y37519D01*
X49826D01*
Y37528D01*
X49817D01*
Y37519D01*
X49813D01*
Y37514D01*
X49808D01*
Y37506D01*
X49804D01*
Y37501D01*
X49800D01*
Y37497D01*
X49795D01*
Y37488D01*
X49791D01*
Y37484D01*
X49786D01*
Y37475D01*
X49782D01*
Y37470D01*
X49778D01*
Y37466D01*
X49773D01*
Y37457D01*
X49769D01*
Y37453D01*
X49764D01*
Y37448D01*
X49760D01*
Y37439D01*
X49755D01*
Y37435D01*
X49751D01*
Y37431D01*
X49747D01*
Y37422D01*
X49742D01*
Y37417D01*
X49738D01*
Y37413D01*
X49733D01*
Y37409D01*
X49729D01*
Y37400D01*
X49725D01*
Y37395D01*
X49720D01*
Y37391D01*
X49716D01*
Y37387D01*
X49711D01*
Y37378D01*
X49707D01*
Y37373D01*
X49703D01*
Y37369D01*
X49698D01*
Y37365D01*
X49694D01*
Y37360D01*
X49689D01*
Y37356D01*
X49685D01*
Y37347D01*
X49681D01*
Y37343D01*
X49676D01*
Y37338D01*
X49672D01*
Y37334D01*
X49667D01*
Y37329D01*
X49663D01*
Y37325D01*
X49658D01*
Y37316D01*
X49654D01*
Y37312D01*
X49650D01*
Y37307D01*
X49645D01*
Y37303D01*
X49641D01*
Y37298D01*
X49636D01*
Y37294D01*
X49632D01*
Y37290D01*
X49628D01*
Y37285D01*
X49623D01*
Y37281D01*
X49619D01*
Y37276D01*
X49614D01*
Y37272D01*
X49610D01*
Y37268D01*
X49606D01*
Y37263D01*
X49601D01*
Y37259D01*
X49597D01*
Y37254D01*
X49592D01*
Y37250D01*
X49588D01*
Y37246D01*
X49584D01*
Y37241D01*
X49579D01*
Y37237D01*
X49575D01*
Y37232D01*
X49570D01*
Y37228D01*
X49566D01*
Y37223D01*
X49562D01*
Y37219D01*
X49557D01*
Y37215D01*
X49553D01*
Y37210D01*
X49548D01*
Y37206D01*
X49544D01*
Y37201D01*
X49539D01*
Y37197D01*
X49535D01*
Y37193D01*
X49531D01*
Y37188D01*
X49526D01*
Y37184D01*
X49517D01*
Y37179D01*
X49513D01*
Y37175D01*
X49509D01*
Y37171D01*
X49504D01*
Y37166D01*
X49500D01*
Y37162D01*
X49495D01*
Y37157D01*
X49487D01*
Y37153D01*
X49482D01*
Y37149D01*
X49478D01*
Y37144D01*
X49473D01*
Y37140D01*
X49469D01*
Y37135D01*
X49460D01*
Y37131D01*
X49456D01*
Y37127D01*
X49451D01*
Y37122D01*
X49447D01*
Y37118D01*
X49438D01*
Y37113D01*
X49434D01*
Y37109D01*
X49429D01*
Y37104D01*
X49420D01*
Y37100D01*
X49416D01*
Y37096D01*
X49412D01*
Y37091D01*
X49403D01*
Y37087D01*
X49398D01*
Y37082D01*
X49390D01*
Y37078D01*
X49385D01*
Y37074D01*
X49381D01*
Y37069D01*
X49372D01*
Y37065D01*
X49368D01*
Y37060D01*
X49359D01*
Y37056D01*
X49354D01*
Y37052D01*
X49345D01*
Y37047D01*
X49341D01*
Y37043D01*
X49332D01*
Y37038D01*
X49323D01*
Y37034D01*
X49319D01*
Y37030D01*
X49310D01*
Y37025D01*
X49306D01*
Y37021D01*
X49297D01*
Y37016D01*
X49288D01*
Y37012D01*
X49279D01*
Y37007D01*
X49271D01*
Y37003D01*
X49266D01*
Y36999D01*
X49257D01*
Y36994D01*
X49249D01*
Y36990D01*
X49240D01*
Y36985D01*
X49231D01*
Y36981D01*
X49222D01*
Y36977D01*
X49213D01*
Y36972D01*
X49204D01*
Y36968D01*
X49196D01*
Y36963D01*
X49187D01*
Y36959D01*
X49178D01*
Y36955D01*
X49169D01*
Y36950D01*
X49156D01*
Y36946D01*
X49147D01*
Y36941D01*
X49138D01*
Y36937D01*
X49125D01*
Y36933D01*
X49116D01*
Y36928D01*
X49103D01*
Y36924D01*
X49090D01*
Y36919D01*
X49077D01*
Y36915D01*
X49063D01*
Y36910D01*
X49050D01*
Y36906D01*
X49037D01*
Y36902D01*
X49024D01*
Y36897D01*
X49006D01*
Y36893D01*
X48993D01*
Y36888D01*
X48975D01*
Y36884D01*
X48958D01*
Y36880D01*
X48936D01*
Y36875D01*
X48913D01*
Y36871D01*
X48891D01*
Y36866D01*
X48865D01*
Y36862D01*
X48830D01*
Y36858D01*
X48781D01*
Y36853D01*
X48605D01*
Y36858D01*
X48561D01*
Y36862D01*
X48526D01*
Y36866D01*
X48499D01*
Y36871D01*
X48473D01*
Y36875D01*
X48451D01*
Y36880D01*
X48433D01*
Y36884D01*
X48415D01*
Y36888D01*
X48398D01*
Y36893D01*
X48384D01*
Y36897D01*
X48367D01*
Y36902D01*
X48354D01*
Y36906D01*
X48340D01*
Y36910D01*
X48327D01*
Y36915D01*
X48314D01*
Y36919D01*
X48301D01*
Y36924D01*
X48292D01*
Y36928D01*
X48279D01*
Y36933D01*
X48265D01*
Y36937D01*
X48257D01*
Y36941D01*
X48248D01*
Y36946D01*
X48235D01*
Y36950D01*
X48226D01*
Y36955D01*
X48217D01*
Y36959D01*
X48208D01*
Y36963D01*
X48199D01*
Y36968D01*
X48191D01*
Y36972D01*
X48182D01*
Y36977D01*
X48173D01*
Y36981D01*
X48164D01*
Y36985D01*
X48155D01*
Y36990D01*
X48146D01*
Y36994D01*
X48138D01*
Y36999D01*
X48133D01*
Y37003D01*
X48124D01*
Y37007D01*
X48116D01*
Y37012D01*
X48107D01*
Y37016D01*
X48102D01*
Y37021D01*
X48094D01*
Y37025D01*
X48089D01*
Y37030D01*
X48080D01*
Y37034D01*
X48076D01*
Y37038D01*
X48067D01*
Y37043D01*
X48063D01*
Y37047D01*
X48054D01*
Y37052D01*
X48049D01*
Y37056D01*
X48041D01*
Y37060D01*
X48036D01*
Y37065D01*
X48027D01*
Y37069D01*
X48023D01*
Y37074D01*
X48019D01*
Y37078D01*
X48014D01*
Y37082D01*
X48005D01*
Y37087D01*
X48001D01*
Y37091D01*
X47997D01*
Y37096D01*
X47988D01*
Y37100D01*
X47983D01*
Y37104D01*
X47979D01*
Y37109D01*
X47975D01*
Y37113D01*
X47970D01*
Y37118D01*
X47961D01*
Y37122D01*
X47957D01*
Y37127D01*
X47952D01*
Y37131D01*
X47948D01*
Y37135D01*
X47944D01*
Y37140D01*
X47939D01*
Y37144D01*
X47935D01*
Y37149D01*
X47930D01*
Y37153D01*
X47926D01*
Y37157D01*
X47917D01*
Y37162D01*
X47913D01*
Y37166D01*
X47908D01*
Y37171D01*
X47904D01*
Y37175D01*
X47900D01*
Y37179D01*
X47895D01*
Y37184D01*
X47891D01*
Y37188D01*
X47886D01*
Y37193D01*
X47882D01*
Y37197D01*
X47878D01*
Y37206D01*
X47873D01*
Y37210D01*
X47869D01*
Y37215D01*
X47864D01*
Y37219D01*
X47860D01*
Y37223D01*
X47855D01*
Y37228D01*
X47851D01*
Y37232D01*
X47847D01*
Y37237D01*
X47842D01*
Y37246D01*
X47838D01*
Y37250D01*
X47833D01*
Y37254D01*
X47829D01*
Y37259D01*
X47825D01*
Y37263D01*
X47820D01*
Y37272D01*
X47816D01*
Y37276D01*
X47811D01*
Y37281D01*
X47807D01*
Y37290D01*
X47803D01*
Y37294D01*
X47798D01*
Y37298D01*
X47794D01*
Y37307D01*
X47789D01*
Y37312D01*
X47785D01*
Y37316D01*
X47781D01*
Y37325D01*
X47776D01*
Y37329D01*
X47772D01*
Y37338D01*
X47767D01*
Y37343D01*
X47763D01*
Y37351D01*
X47758D01*
Y37356D01*
X47754D01*
Y37365D01*
X47750D01*
Y37373D01*
X47745D01*
Y37378D01*
X47741D01*
Y37387D01*
X47736D01*
Y37395D01*
X47732D01*
Y37400D01*
X47728D01*
Y37409D01*
X47723D01*
Y37417D01*
X47719D01*
Y37426D01*
X47714D01*
Y37435D01*
X47710D01*
Y37444D01*
X47706D01*
Y37448D01*
X47701D01*
Y37462D01*
X47697D01*
Y37470D01*
X47692D01*
Y37479D01*
X47688D01*
Y37488D01*
X47684D01*
Y37497D01*
X47679D01*
Y37506D01*
X47675D01*
Y37519D01*
X47670D01*
Y37528D01*
X47666D01*
Y37541D01*
X47662D01*
Y37550D01*
X47657D01*
Y37563D01*
X47653D01*
Y37576D01*
X47648D01*
Y37589D01*
X47644D01*
Y37603D01*
X47639D01*
Y37616D01*
X47635D01*
Y37633D01*
X47631D01*
Y37647D01*
X47626D01*
Y37664D01*
X47622D01*
Y37682D01*
X47617D01*
Y37704D01*
X47613D01*
Y37726D01*
X47609D01*
Y37752D01*
X47604D01*
Y37783D01*
X47600D01*
Y37827D01*
X47595D01*
Y37995D01*
X47600D01*
Y38035D01*
X47604D01*
Y38070D01*
X47609D01*
Y38096D01*
X47613D01*
Y38118D01*
X47617D01*
Y38136D01*
X47622D01*
Y38154D01*
X47626D01*
Y38171D01*
X47631D01*
Y38189D01*
X47635D01*
Y38202D01*
X47639D01*
Y38220D01*
X47644D01*
Y38233D01*
X47648D01*
Y38246D01*
X47653D01*
Y38259D01*
X47657D01*
Y38268D01*
X47662D01*
Y38281D01*
X47666D01*
Y38290D01*
X47670D01*
Y38304D01*
X47675D01*
Y38312D01*
X47679D01*
Y38326D01*
X47684D01*
Y38334D01*
X47688D01*
Y38343D01*
X47692D01*
Y38352D01*
X47697D01*
Y38361D01*
X47701D01*
Y38370D01*
X47706D01*
Y38378D01*
X47710D01*
Y38387D01*
X47714D01*
Y38396D01*
X47719D01*
Y38405D01*
X47723D01*
Y38414D01*
X47728D01*
Y38418D01*
X47732D01*
Y38427D01*
X47736D01*
Y38436D01*
X47741D01*
Y38440D01*
X47745D01*
Y38449D01*
X47750D01*
Y38458D01*
X47754D01*
Y38462D01*
X47758D01*
Y38471D01*
X47763D01*
Y38475D01*
X47767D01*
Y38484D01*
X47772D01*
Y38489D01*
X47776D01*
Y38497D01*
X47781D01*
Y38502D01*
X47785D01*
Y38511D01*
X47789D01*
Y38515D01*
X47794D01*
Y38520D01*
X47798D01*
Y38528D01*
X47803D01*
Y38533D01*
X47807D01*
Y38537D01*
X47811D01*
Y38546D01*
X47816D01*
Y38550D01*
X47820D01*
Y38555D01*
X47825D01*
Y38559D01*
X47829D01*
Y38568D01*
X47833D01*
Y38572D01*
X47838D01*
Y38577D01*
X47842D01*
Y38581D01*
X47847D01*
Y38586D01*
X47851D01*
Y38594D01*
X47855D01*
Y38599D01*
X47860D01*
Y38603D01*
X47864D01*
Y38608D01*
X47869D01*
Y38612D01*
X47873D01*
Y38617D01*
X47878D01*
Y38621D01*
X47882D01*
Y38625D01*
X47886D01*
Y38630D01*
X47891D01*
Y38634D01*
X47895D01*
Y38639D01*
X47900D01*
Y38643D01*
X47904D01*
Y38647D01*
X47908D01*
Y38652D01*
X47913D01*
Y38656D01*
X47917D01*
Y38661D01*
X47922D01*
Y38665D01*
X47926D01*
Y38669D01*
X47930D01*
Y38674D01*
X47935D01*
Y38678D01*
X47939D01*
Y38683D01*
X47944D01*
Y38687D01*
X47948D01*
Y38691D01*
X47952D01*
Y38696D01*
X47961D01*
Y38700D01*
X47966D01*
Y38705D01*
X47970D01*
Y38709D01*
X47975D01*
Y38714D01*
X47979D01*
Y38718D01*
X47988D01*
Y38722D01*
X47992D01*
Y38727D01*
X47997D01*
Y38731D01*
X48001D01*
Y38736D01*
X48010D01*
Y38740D01*
X48014D01*
Y38744D01*
X48019D01*
Y38749D01*
X48027D01*
Y38753D01*
X48032D01*
Y38758D01*
X48036D01*
Y38762D01*
X48045D01*
Y38766D01*
X48049D01*
Y38771D01*
X48058D01*
Y38775D01*
X48063D01*
Y38780D01*
X48071D01*
Y38784D01*
X48076D01*
Y38788D01*
X48085D01*
Y38793D01*
X48089D01*
Y38797D01*
X48098D01*
Y38802D01*
X48102D01*
Y38806D01*
X48111D01*
Y38810D01*
X48120D01*
Y38815D01*
X48124D01*
Y38819D01*
X48133D01*
Y38824D01*
X48142D01*
Y38828D01*
X48151D01*
Y38833D01*
X48160D01*
Y38837D01*
X48164D01*
Y38841D01*
X48173D01*
Y38846D01*
X48182D01*
Y38850D01*
X48191D01*
Y38855D01*
X48199D01*
Y38859D01*
X48208D01*
Y38863D01*
X48221D01*
Y38868D01*
X48230D01*
Y38872D01*
X48239D01*
Y38877D01*
X48248D01*
Y38881D01*
X48261D01*
Y38885D01*
X48270D01*
Y38890D01*
X48283D01*
Y38894D01*
X48296D01*
Y38899D01*
X48305D01*
Y38903D01*
X48318D01*
Y38907D01*
X48332D01*
Y38912D01*
X48345D01*
Y38916D01*
X48358D01*
Y38921D01*
X48371D01*
Y38925D01*
X48389D01*
Y38930D01*
X48407D01*
Y38934D01*
X48420D01*
Y38938D01*
X48442D01*
Y38943D01*
X48459D01*
Y38947D01*
X48481D01*
Y38952D01*
X48508D01*
Y38956D01*
X48539D01*
Y38960D01*
X48574D01*
Y38965D01*
X48631D01*
Y38969D01*
X48750D01*
Y38965D01*
X48812D01*
Y38960D01*
X48847D01*
Y38956D01*
X48878D01*
Y38952D01*
X48905D01*
Y38947D01*
X48927D01*
Y38943D01*
X48949D01*
Y38938D01*
X48966D01*
Y38934D01*
X48984D01*
Y38930D01*
X49002D01*
Y38925D01*
X49019D01*
Y38921D01*
X49033D01*
Y38916D01*
X49046D01*
Y38912D01*
X49059D01*
Y38907D01*
X49072D01*
Y38903D01*
X49085D01*
Y38899D01*
X49099D01*
Y38894D01*
X49112D01*
Y38890D01*
X49121D01*
Y38885D01*
X49134D01*
Y38881D01*
X49143D01*
Y38877D01*
X49156D01*
Y38872D01*
X49165D01*
Y38868D01*
X49174D01*
Y38863D01*
X49182D01*
Y38859D01*
X49191D01*
Y38855D01*
X49204D01*
Y38850D01*
X49213D01*
Y38846D01*
X49222D01*
Y38841D01*
X49231D01*
Y38837D01*
X49240D01*
Y38833D01*
X49244D01*
Y38828D01*
X49253D01*
Y38824D01*
X49262D01*
Y38819D01*
X49271D01*
Y38815D01*
X49279D01*
Y38810D01*
X49288D01*
Y38806D01*
X49293D01*
Y38802D01*
X49301D01*
Y38797D01*
X49310D01*
Y38793D01*
X49315D01*
Y38788D01*
X49323D01*
Y38784D01*
X49328D01*
Y38780D01*
X49337D01*
Y38775D01*
X49345D01*
Y38771D01*
X49350D01*
Y38766D01*
X49359D01*
Y38762D01*
X49363D01*
Y38758D01*
X49372D01*
Y38753D01*
X49376D01*
Y38749D01*
X49385D01*
Y38744D01*
X49390D01*
Y38740D01*
X49394D01*
Y38736D01*
X49403D01*
Y38731D01*
X49407D01*
Y38727D01*
X49416D01*
Y38722D01*
X49420D01*
Y38718D01*
X49425D01*
Y38714D01*
X49434D01*
Y38709D01*
X49438D01*
Y38705D01*
X49442D01*
Y38700D01*
X49447D01*
Y38696D01*
X49456D01*
Y38691D01*
X49460D01*
Y38687D01*
X49465D01*
Y38683D01*
X49469D01*
Y38678D01*
X49478D01*
Y38674D01*
X49482D01*
Y38669D01*
X49487D01*
Y38665D01*
X49491D01*
Y38661D01*
X49495D01*
Y38656D01*
X49504D01*
Y38652D01*
X49509D01*
Y38647D01*
X49513D01*
Y38643D01*
X49517D01*
Y38639D01*
X49522D01*
Y38634D01*
X49526D01*
Y38630D01*
X49531D01*
Y38625D01*
X49535D01*
Y38621D01*
X49544D01*
Y38617D01*
X49548D01*
Y38612D01*
X49553D01*
Y38608D01*
X49557D01*
Y38603D01*
X49562D01*
Y38599D01*
X49566D01*
Y38594D01*
X49570D01*
Y38590D01*
X49575D01*
Y38586D01*
X49579D01*
Y38581D01*
X49584D01*
Y38577D01*
X49588D01*
Y38572D01*
X49592D01*
Y38568D01*
X49597D01*
Y38564D01*
X49601D01*
Y38559D01*
X49606D01*
Y38555D01*
X49610D01*
Y38550D01*
X49614D01*
Y38546D01*
X49619D01*
Y38542D01*
X49623D01*
Y38537D01*
X49628D01*
Y38533D01*
X49632D01*
Y38528D01*
X49636D01*
Y38524D01*
X49641D01*
Y38520D01*
X49645D01*
Y38511D01*
X49650D01*
Y38506D01*
X49654D01*
Y38502D01*
X49658D01*
Y38497D01*
X49663D01*
Y38493D01*
X49667D01*
Y38489D01*
X49672D01*
Y38484D01*
X49676D01*
Y38475D01*
X49681D01*
Y38471D01*
X49685D01*
Y38467D01*
X49689D01*
Y38462D01*
X49694D01*
Y38458D01*
X49698D01*
Y38453D01*
X49703D01*
Y38445D01*
X49707D01*
Y38440D01*
X49711D01*
Y38436D01*
X49716D01*
Y38431D01*
X49720D01*
Y38427D01*
X49725D01*
Y38418D01*
X49729D01*
Y38414D01*
X49733D01*
Y38409D01*
X49738D01*
Y38405D01*
X49742D01*
Y38396D01*
X49747D01*
Y38392D01*
X49751D01*
Y38387D01*
X49755D01*
Y38378D01*
X49760D01*
Y38374D01*
X49764D01*
Y38370D01*
X49769D01*
Y38361D01*
X49773D01*
Y38356D01*
X49778D01*
Y38352D01*
X49782D01*
Y38343D01*
X49786D01*
Y38339D01*
X49791D01*
Y38334D01*
X49795D01*
Y38326D01*
X49800D01*
Y38321D01*
X49804D01*
Y38312D01*
X49808D01*
Y38308D01*
X49813D01*
Y38299D01*
X49817D01*
Y38295D01*
X49826D01*
Y38304D01*
X49830D01*
Y38308D01*
X49835D01*
Y38317D01*
X49839D01*
Y38321D01*
X49844D01*
Y38326D01*
X49848D01*
Y38334D01*
X49852D01*
Y38339D01*
X49857D01*
Y38348D01*
X49861D01*
Y38352D01*
X49866D01*
Y38356D01*
X49870D01*
Y38365D01*
X49875D01*
Y38370D01*
X49879D01*
Y38374D01*
X49883D01*
Y38383D01*
X49888D01*
Y38387D01*
X49892D01*
Y38392D01*
X49897D01*
Y38401D01*
X49901D01*
Y38405D01*
X49905D01*
Y38409D01*
X49910D01*
Y38414D01*
X49914D01*
Y38423D01*
X49919D01*
Y38427D01*
X49923D01*
Y38431D01*
X49927D01*
Y38436D01*
X49932D01*
Y38445D01*
X49936D01*
Y38449D01*
X49941D01*
Y38453D01*
X49945D01*
Y38458D01*
X49949D01*
Y38462D01*
X49954D01*
Y38467D01*
X49958D01*
Y38475D01*
X49963D01*
Y38480D01*
X49967D01*
Y38484D01*
X49971D01*
Y38489D01*
X49976D01*
Y38493D01*
X49980D01*
Y38497D01*
X49985D01*
Y38502D01*
X49989D01*
Y38511D01*
X49994D01*
Y38515D01*
X49998D01*
Y38520D01*
X50002D01*
Y38524D01*
X50007D01*
Y38528D01*
X50011D01*
Y38533D01*
X50016D01*
Y38537D01*
X50020D01*
Y38542D01*
X50024D01*
Y38546D01*
X50029D01*
Y38550D01*
X50033D01*
Y38555D01*
X50038D01*
Y38559D01*
X50042D01*
Y38564D01*
X50046D01*
Y38568D01*
X50051D01*
Y38572D01*
X50055D01*
Y38577D01*
X50060D01*
Y38581D01*
X50064D01*
Y38586D01*
X50068D01*
Y38590D01*
X50073D01*
Y38594D01*
X50077D01*
Y38599D01*
X50082D01*
Y38603D01*
X50086D01*
Y38608D01*
X50091D01*
Y38612D01*
X50095D01*
Y38617D01*
X50099D01*
Y38621D01*
X50104D01*
Y38625D01*
X50108D01*
Y38630D01*
X50117D01*
Y38634D01*
X50121D01*
Y38639D01*
X50126D01*
Y38643D01*
X50130D01*
Y38647D01*
X50135D01*
Y38652D01*
X50139D01*
Y38656D01*
X50143D01*
Y38661D01*
X50152D01*
Y38665D01*
X50157D01*
Y38669D01*
X50161D01*
Y38674D01*
X50165D01*
Y38678D01*
X50170D01*
Y38683D01*
X50179D01*
Y38687D01*
X50183D01*
Y38691D01*
X50187D01*
Y38696D01*
X50192D01*
Y38700D01*
X50201D01*
Y38705D01*
X50205D01*
Y38709D01*
X50210D01*
Y38714D01*
X50218D01*
Y38718D01*
X50223D01*
Y38722D01*
X50227D01*
Y38727D01*
X50236D01*
Y38731D01*
X50240D01*
Y38736D01*
X50245D01*
Y38740D01*
X50254D01*
Y38744D01*
X50258D01*
Y38749D01*
X50267D01*
Y38753D01*
X50271D01*
Y38758D01*
X50280D01*
Y38762D01*
X50284D01*
Y38766D01*
X50293D01*
Y38771D01*
X50298D01*
Y38775D01*
X50307D01*
Y38780D01*
X50311D01*
Y38784D01*
X50320D01*
Y38788D01*
X50329D01*
Y38793D01*
X50333D01*
Y38797D01*
X50342D01*
Y38802D01*
X50351D01*
Y38806D01*
X50355D01*
Y38810D01*
X50364D01*
Y38815D01*
X50373D01*
Y38819D01*
X50381D01*
Y38824D01*
X50386D01*
Y38828D01*
X50395D01*
Y38833D01*
X50403D01*
Y38837D01*
X50412D01*
Y38841D01*
X50421D01*
Y38846D01*
X50430D01*
Y38850D01*
X50439D01*
Y38855D01*
X50448D01*
Y38859D01*
X50461D01*
Y38863D01*
X50470D01*
Y38868D01*
X50478D01*
Y38872D01*
X50487D01*
Y38877D01*
X50500D01*
Y38881D01*
X50509D01*
Y38885D01*
X50523D01*
Y38890D01*
X50531D01*
Y38894D01*
X50545D01*
Y38899D01*
X50558D01*
Y38903D01*
X50567D01*
Y38907D01*
X50584D01*
Y38912D01*
X50597D01*
Y38916D01*
X50611D01*
Y38921D01*
X50624D01*
Y38925D01*
X50642D01*
Y38930D01*
X50655D01*
Y38934D01*
X50677D01*
Y38938D01*
X50694D01*
Y38943D01*
X50716D01*
Y38947D01*
X50739D01*
Y38952D01*
X50765D01*
Y38956D01*
X50791D01*
Y38960D01*
X50831D01*
Y38965D01*
X50893D01*
Y38969D01*
X51012D01*
Y38965D01*
D02*
G37*
G36*
X28377Y37004D02*
X27983D01*
X28180Y37280D01*
X28377Y37004D01*
D02*
G37*
G36*
X28721Y36453D02*
X28426Y36453D01*
Y36748D01*
X28721D01*
Y36453D01*
D02*
G37*
G36*
X51307Y36298D02*
Y36293D01*
Y35923D01*
X51153D01*
Y35932D01*
X51149D01*
Y35941D01*
X51144D01*
Y35949D01*
X51140D01*
Y35958D01*
X51135D01*
Y35967D01*
X51131D01*
Y35972D01*
X51126D01*
Y35980D01*
X51122D01*
Y35989D01*
X51118D01*
Y35998D01*
X51113D01*
Y36007D01*
X51109D01*
Y36016D01*
X51104D01*
Y36024D01*
X51100D01*
Y36033D01*
X51096D01*
Y36038D01*
X51091D01*
Y36046D01*
X51087D01*
Y36055D01*
X51082D01*
Y36064D01*
X51078D01*
Y36073D01*
X51074D01*
Y36082D01*
X51069D01*
Y36091D01*
X51065D01*
Y36099D01*
X51060D01*
Y36104D01*
X51056D01*
Y36113D01*
X51052D01*
Y36121D01*
X51047D01*
Y36130D01*
X51043D01*
Y36139D01*
X51038D01*
Y36148D01*
X51034D01*
Y36157D01*
X51029D01*
Y36165D01*
X51025D01*
Y36170D01*
X51021D01*
Y36179D01*
X51016D01*
Y36188D01*
X51012D01*
Y36196D01*
X51007D01*
Y36205D01*
X51003D01*
Y36214D01*
X50999D01*
Y36223D01*
X50994D01*
Y36227D01*
X50990D01*
Y36236D01*
X50985D01*
Y36245D01*
X50981D01*
Y36254D01*
X50977D01*
Y36262D01*
X50972D01*
Y36271D01*
X50968D01*
Y36280D01*
X50963D01*
Y36289D01*
X50959D01*
Y36293D01*
X50955D01*
Y36302D01*
X50950D01*
Y36311D01*
X50946D01*
Y35923D01*
X50805D01*
Y36536D01*
X50972D01*
Y36527D01*
X50977D01*
Y36518D01*
X50981D01*
Y36509D01*
X50985D01*
Y36501D01*
X50990D01*
Y36492D01*
X50994D01*
Y36487D01*
X50999D01*
Y36478D01*
X51003D01*
Y36470D01*
X51007D01*
Y36461D01*
X51012D01*
Y36452D01*
X51016D01*
Y36443D01*
X51021D01*
Y36434D01*
X51025D01*
Y36430D01*
X51029D01*
Y36421D01*
X51034D01*
Y36412D01*
X51038D01*
Y36404D01*
X51043D01*
Y36395D01*
X51047D01*
Y36386D01*
X51052D01*
Y36377D01*
X51056D01*
Y36373D01*
X51060D01*
Y36364D01*
X51065D01*
Y36355D01*
X51069D01*
Y36346D01*
X51074D01*
Y36337D01*
X51078D01*
Y36329D01*
X51082D01*
Y36320D01*
X51087D01*
Y36315D01*
X51091D01*
Y36307D01*
X51096D01*
Y36298D01*
X51100D01*
Y36289D01*
X51104D01*
Y36280D01*
X51109D01*
Y36271D01*
X51113D01*
Y36262D01*
X51118D01*
Y36258D01*
X51122D01*
Y36249D01*
X51126D01*
Y36240D01*
X51131D01*
Y36232D01*
X51135D01*
Y36223D01*
X51140D01*
Y36214D01*
X51144D01*
Y36210D01*
X51149D01*
Y36201D01*
X51153D01*
Y36192D01*
X51157D01*
Y36183D01*
X51162D01*
Y36174D01*
X51166D01*
Y36536D01*
X51307D01*
Y36298D01*
D02*
G37*
G36*
X50073Y36099D02*
X50068D01*
Y36073D01*
X50064D01*
Y36055D01*
X50060D01*
Y36042D01*
X50055D01*
Y36033D01*
X50051D01*
Y36024D01*
X50046D01*
Y36016D01*
X50042D01*
Y36007D01*
X50038D01*
Y36002D01*
X50033D01*
Y35994D01*
X50029D01*
Y35989D01*
X50024D01*
Y35985D01*
X50020D01*
Y35980D01*
X50016D01*
Y35976D01*
X50011D01*
Y35972D01*
X50007D01*
Y35967D01*
X50002D01*
Y35963D01*
X49994D01*
Y35958D01*
X49989D01*
Y35954D01*
X49980D01*
Y35949D01*
X49971D01*
Y35945D01*
X49963D01*
Y35941D01*
X49954D01*
Y35936D01*
X49945D01*
Y35932D01*
X49932D01*
Y35927D01*
X49914D01*
Y35923D01*
X49892D01*
Y35919D01*
X49857D01*
Y35914D01*
X49791D01*
Y35919D01*
X49760D01*
Y35923D01*
X49738D01*
Y35927D01*
X49720D01*
Y35932D01*
X49711D01*
Y35936D01*
X49698D01*
Y35941D01*
X49689D01*
Y35945D01*
X49681D01*
Y35949D01*
X49672D01*
Y35954D01*
X49667D01*
Y35958D01*
X49658D01*
Y35963D01*
X49654D01*
Y35967D01*
X49650D01*
Y35972D01*
X49645D01*
Y35976D01*
X49641D01*
Y35980D01*
X49636D01*
Y35985D01*
X49632D01*
Y35989D01*
X49628D01*
Y35998D01*
X49623D01*
Y36002D01*
X49619D01*
Y36011D01*
X49614D01*
Y36020D01*
X49610D01*
Y36029D01*
X49606D01*
Y36038D01*
X49601D01*
Y36051D01*
X49597D01*
Y36068D01*
X49592D01*
Y36091D01*
X49588D01*
Y36536D01*
X49738D01*
Y36135D01*
X49742D01*
Y36104D01*
X49747D01*
Y36091D01*
X49751D01*
Y36082D01*
X49755D01*
Y36073D01*
X49760D01*
Y36064D01*
X49764D01*
Y36060D01*
X49769D01*
Y36055D01*
X49778D01*
Y36051D01*
X49782D01*
Y36046D01*
X49791D01*
Y36042D01*
X49813D01*
Y36038D01*
X49852D01*
Y36042D01*
X49875D01*
Y36046D01*
X49883D01*
Y36051D01*
X49892D01*
Y36055D01*
X49897D01*
Y36060D01*
X49901D01*
Y36064D01*
X49905D01*
Y36068D01*
X49910D01*
Y36077D01*
X49914D01*
Y36086D01*
X49919D01*
Y36099D01*
X49923D01*
Y36130D01*
X49927D01*
Y36536D01*
X50073D01*
Y36099D01*
D02*
G37*
G36*
X50677Y36531D02*
Y36412D01*
X50518D01*
Y36051D01*
X50677D01*
Y35923D01*
X50210D01*
Y36051D01*
X50368D01*
Y36412D01*
X50210D01*
Y36536D01*
X50677D01*
Y36531D01*
D02*
G37*
G36*
X49240D02*
X49271D01*
Y36527D01*
X49293D01*
Y36523D01*
X49306D01*
Y36518D01*
X49319D01*
Y36514D01*
X49332D01*
Y36509D01*
X49341D01*
Y36505D01*
X49354D01*
Y36501D01*
X49359D01*
Y36496D01*
X49368D01*
Y36492D01*
X49376D01*
Y36487D01*
X49381D01*
Y36483D01*
X49390D01*
Y36478D01*
X49394D01*
Y36474D01*
X49398D01*
Y36470D01*
X49403D01*
Y36465D01*
X49407D01*
Y36461D01*
X49412D01*
Y36456D01*
X49416D01*
Y36452D01*
X49420D01*
Y36443D01*
X49425D01*
Y36439D01*
X49429D01*
Y36434D01*
X49434D01*
Y36426D01*
X49438D01*
Y36417D01*
X49442D01*
Y36408D01*
X49447D01*
Y36399D01*
X49451D01*
Y36390D01*
X49456D01*
Y36377D01*
X49460D01*
Y36364D01*
X49465D01*
Y36346D01*
X49469D01*
Y36324D01*
X49473D01*
Y36285D01*
X49478D01*
Y36188D01*
X49473D01*
Y36152D01*
X49469D01*
Y36126D01*
X49465D01*
Y36113D01*
X49460D01*
Y36095D01*
X49456D01*
Y36082D01*
X49451D01*
Y36073D01*
X49447D01*
Y36064D01*
X49442D01*
Y36055D01*
X49438D01*
Y36046D01*
X49434D01*
Y36038D01*
X49429D01*
Y36033D01*
X49425D01*
Y36024D01*
X49420D01*
Y36020D01*
X49416D01*
Y36016D01*
X49412D01*
Y36011D01*
X49407D01*
Y36007D01*
X49403D01*
Y35998D01*
X49394D01*
Y35994D01*
X49390D01*
Y35989D01*
X49385D01*
Y35985D01*
X49381D01*
Y35980D01*
X49376D01*
Y35976D01*
X49368D01*
Y35972D01*
X49363D01*
Y35967D01*
X49354D01*
Y35963D01*
X49345D01*
Y35958D01*
X49337D01*
Y35954D01*
X49328D01*
Y35949D01*
X49315D01*
Y35945D01*
X49306D01*
Y35941D01*
X49288D01*
Y35936D01*
X49271D01*
Y35932D01*
X49249D01*
Y35927D01*
X49200D01*
Y35923D01*
X48971D01*
Y35989D01*
Y35994D01*
Y36536D01*
X49240D01*
Y36531D01*
D02*
G37*
G36*
X48671D02*
X48697D01*
Y36527D01*
X48715D01*
Y36523D01*
X48728D01*
Y36518D01*
X48742D01*
Y36514D01*
X48750D01*
Y36509D01*
X48759D01*
Y36505D01*
X48764D01*
Y36501D01*
X48772D01*
Y36496D01*
X48777D01*
Y36492D01*
X48786D01*
Y36487D01*
X48790D01*
Y36483D01*
X48794D01*
Y36478D01*
X48799D01*
Y36474D01*
X48803D01*
Y36470D01*
X48808D01*
Y36465D01*
X48812D01*
Y36456D01*
X48816D01*
Y36452D01*
X48821D01*
Y36443D01*
X48825D01*
Y36434D01*
X48830D01*
Y36426D01*
X48834D01*
Y36412D01*
X48839D01*
Y36399D01*
X48843D01*
Y36381D01*
X48847D01*
Y36285D01*
X48843D01*
Y36267D01*
X48839D01*
Y36254D01*
X48834D01*
Y36240D01*
X48830D01*
Y36232D01*
X48825D01*
Y36223D01*
X48821D01*
Y36214D01*
X48816D01*
Y36210D01*
X48812D01*
Y36201D01*
X48808D01*
Y36196D01*
X48803D01*
Y36192D01*
X48799D01*
Y36188D01*
X48794D01*
Y36183D01*
X48790D01*
Y36179D01*
X48786D01*
Y36174D01*
X48781D01*
Y36170D01*
X48777D01*
Y36165D01*
X48772D01*
Y36161D01*
X48764D01*
Y36157D01*
X48759D01*
Y36152D01*
X48750D01*
Y36139D01*
X48755D01*
Y36135D01*
X48759D01*
Y36126D01*
X48764D01*
Y36117D01*
X48768D01*
Y36108D01*
X48772D01*
Y36099D01*
X48777D01*
Y36091D01*
X48781D01*
Y36082D01*
X48786D01*
Y36073D01*
X48790D01*
Y36068D01*
X48794D01*
Y36060D01*
X48799D01*
Y36051D01*
X48803D01*
Y36042D01*
X48808D01*
Y36033D01*
X48812D01*
Y36024D01*
X48816D01*
Y36016D01*
X48821D01*
Y36007D01*
X48825D01*
Y36002D01*
X48830D01*
Y35994D01*
X48834D01*
Y35985D01*
X48839D01*
Y35976D01*
X48843D01*
Y35967D01*
X48847D01*
Y35958D01*
X48852D01*
Y35949D01*
X48856D01*
Y35941D01*
X48861D01*
Y35936D01*
X48865D01*
Y35923D01*
X48689D01*
Y35927D01*
X48684D01*
Y35941D01*
X48680D01*
Y35949D01*
X48675D01*
Y35958D01*
X48671D01*
Y35967D01*
X48667D01*
Y35976D01*
X48662D01*
Y35985D01*
X48658D01*
Y35994D01*
X48653D01*
Y36002D01*
X48649D01*
Y36011D01*
X48645D01*
Y36024D01*
X48640D01*
Y36033D01*
X48636D01*
Y36042D01*
X48631D01*
Y36051D01*
X48627D01*
Y36060D01*
X48623D01*
Y36068D01*
X48618D01*
Y36077D01*
X48614D01*
Y36086D01*
X48609D01*
Y36095D01*
X48605D01*
Y36108D01*
X48600D01*
Y36117D01*
X48521D01*
Y35923D01*
X48371D01*
Y35927D01*
X48367D01*
Y36536D01*
X48671D01*
Y36531D01*
D02*
G37*
G36*
X48076D02*
X48080D01*
Y36518D01*
X48085D01*
Y36505D01*
X48089D01*
Y36492D01*
X48094D01*
Y36478D01*
X48098D01*
Y36461D01*
X48102D01*
Y36448D01*
X48107D01*
Y36434D01*
X48111D01*
Y36421D01*
X48116D01*
Y36408D01*
X48120D01*
Y36395D01*
X48124D01*
Y36381D01*
X48129D01*
Y36364D01*
X48133D01*
Y36351D01*
X48138D01*
Y36337D01*
X48142D01*
Y36324D01*
X48146D01*
Y36311D01*
X48151D01*
Y36298D01*
X48155D01*
Y36285D01*
X48160D01*
Y36267D01*
X48164D01*
Y36254D01*
X48168D01*
Y36240D01*
X48173D01*
Y36227D01*
X48177D01*
Y36214D01*
X48182D01*
Y36201D01*
X48186D01*
Y36188D01*
X48191D01*
Y36170D01*
X48195D01*
Y36157D01*
X48199D01*
Y36143D01*
X48204D01*
Y36130D01*
X48208D01*
Y36117D01*
X48213D01*
Y36104D01*
X48217D01*
Y36091D01*
X48221D01*
Y36073D01*
X48226D01*
Y36060D01*
X48230D01*
Y36046D01*
X48235D01*
Y36033D01*
X48239D01*
Y36020D01*
X48243D01*
Y36007D01*
X48248D01*
Y35994D01*
X48252D01*
Y35976D01*
X48257D01*
Y35963D01*
X48261D01*
Y35949D01*
X48265D01*
Y35936D01*
X48270D01*
Y35923D01*
X48111D01*
Y35927D01*
X48107D01*
Y35945D01*
X48102D01*
Y35963D01*
X48098D01*
Y35980D01*
X48094D01*
Y35994D01*
X48089D01*
Y36011D01*
X48085D01*
Y36029D01*
X48080D01*
Y36042D01*
X48076D01*
Y36051D01*
X47900D01*
Y36038D01*
X47895D01*
Y36020D01*
X47891D01*
Y36002D01*
X47886D01*
Y35985D01*
X47882D01*
Y35967D01*
X47878D01*
Y35949D01*
X47873D01*
Y35932D01*
X47869D01*
Y35923D01*
X47714D01*
Y35936D01*
X47719D01*
Y35949D01*
X47723D01*
Y35963D01*
X47728D01*
Y35976D01*
X47732D01*
Y35989D01*
X47736D01*
Y36002D01*
X47741D01*
Y36020D01*
X47745D01*
Y36033D01*
X47750D01*
Y36046D01*
X47754D01*
Y36060D01*
X47758D01*
Y36073D01*
X47763D01*
Y36091D01*
X47767D01*
Y36104D01*
X47772D01*
Y36117D01*
X47776D01*
Y36130D01*
X47781D01*
Y36143D01*
X47785D01*
Y36161D01*
X47789D01*
Y36174D01*
X47794D01*
Y36188D01*
X47798D01*
Y36201D01*
X47803D01*
Y36214D01*
X47807D01*
Y36227D01*
X47811D01*
Y36245D01*
X47816D01*
Y36258D01*
X47820D01*
Y36271D01*
X47825D01*
Y36285D01*
X47829D01*
Y36298D01*
X47833D01*
Y36315D01*
X47838D01*
Y36329D01*
X47842D01*
Y36342D01*
X47847D01*
Y36355D01*
X47851D01*
Y36368D01*
X47855D01*
Y36386D01*
X47860D01*
Y36399D01*
X47864D01*
Y36412D01*
X47869D01*
Y36426D01*
X47873D01*
Y36439D01*
X47878D01*
Y36452D01*
X47882D01*
Y36470D01*
X47886D01*
Y36483D01*
X47891D01*
Y36496D01*
X47895D01*
Y36509D01*
X47900D01*
Y36523D01*
X47904D01*
Y36536D01*
X48076D01*
Y36531D01*
D02*
G37*
G36*
X51717Y36540D02*
X51748D01*
Y36536D01*
X51766D01*
Y36531D01*
X51779D01*
Y36527D01*
X51792D01*
Y36523D01*
X51801D01*
Y36518D01*
X51810D01*
Y36514D01*
X51819D01*
Y36509D01*
X51827D01*
Y36505D01*
X51832D01*
Y36501D01*
X51841D01*
Y36496D01*
X51845D01*
Y36492D01*
X51849D01*
Y36487D01*
X51854D01*
Y36483D01*
X51858D01*
Y36478D01*
X51863D01*
Y36474D01*
X51867D01*
Y36470D01*
X51871D01*
Y36461D01*
X51876D01*
Y36456D01*
X51880D01*
Y36448D01*
X51885D01*
Y36443D01*
X51889D01*
Y36434D01*
X51894D01*
Y36426D01*
X51898D01*
Y36412D01*
X51902D01*
Y36404D01*
X51907D01*
Y36390D01*
X51911D01*
Y36373D01*
X51916D01*
Y36355D01*
X51920D01*
Y36324D01*
X51924D01*
Y36285D01*
X51929D01*
Y36183D01*
X51924D01*
Y36143D01*
X51920D01*
Y36121D01*
X51916D01*
Y36099D01*
X51911D01*
Y36086D01*
X51907D01*
Y36073D01*
X51902D01*
Y36060D01*
X51898D01*
Y36051D01*
X51894D01*
Y36042D01*
X51889D01*
Y36033D01*
X51885D01*
Y36024D01*
X51880D01*
Y36016D01*
X51876D01*
Y36011D01*
X51871D01*
Y36002D01*
X51867D01*
Y35998D01*
X51863D01*
Y35994D01*
X51858D01*
Y35989D01*
X51854D01*
Y35985D01*
X51849D01*
Y35980D01*
X51845D01*
Y35976D01*
X51841D01*
Y35972D01*
X51836D01*
Y35967D01*
X51832D01*
Y35963D01*
X51827D01*
Y35958D01*
X51819D01*
Y35954D01*
X51814D01*
Y35949D01*
X51805D01*
Y35945D01*
X51797D01*
Y35941D01*
X51788D01*
Y35936D01*
X51779D01*
Y35932D01*
X51766D01*
Y35927D01*
X51752D01*
Y35923D01*
X51730D01*
Y35919D01*
X51700D01*
Y35914D01*
X51633D01*
Y35919D01*
X51603D01*
Y35923D01*
X51581D01*
Y35927D01*
X51567D01*
Y35932D01*
X51554D01*
Y35936D01*
X51545D01*
Y35941D01*
X51536D01*
Y35945D01*
X51528D01*
Y35949D01*
X51519D01*
Y35954D01*
X51514D01*
Y35958D01*
X51506D01*
Y35963D01*
X51501D01*
Y35967D01*
X51497D01*
Y35972D01*
X51492D01*
Y35976D01*
X51488D01*
Y35980D01*
X51484D01*
Y35985D01*
X51479D01*
Y35989D01*
X51475D01*
Y35994D01*
X51470D01*
Y35998D01*
X51466D01*
Y36002D01*
X51462D01*
Y36011D01*
X51457D01*
Y36016D01*
X51453D01*
Y36024D01*
X51448D01*
Y36033D01*
X51444D01*
Y36042D01*
X51439D01*
Y36051D01*
X51435D01*
Y36064D01*
X51431D01*
Y36077D01*
X51426D01*
Y36095D01*
X51422D01*
Y36113D01*
X51417D01*
Y36139D01*
X51413D01*
Y36179D01*
X51409D01*
Y36267D01*
X51413D01*
Y36311D01*
X51417D01*
Y36337D01*
X51422D01*
Y36355D01*
X51426D01*
Y36373D01*
X51431D01*
Y36386D01*
X51435D01*
Y36395D01*
X51439D01*
Y36408D01*
X51444D01*
Y36417D01*
X51448D01*
Y36426D01*
X51453D01*
Y36434D01*
X51457D01*
Y36443D01*
X51462D01*
Y36448D01*
X51466D01*
Y36456D01*
X51470D01*
Y36461D01*
X51475D01*
Y36465D01*
X51479D01*
Y36470D01*
X51484D01*
Y36474D01*
X51488D01*
Y36478D01*
X51492D01*
Y36483D01*
X51497D01*
Y36487D01*
X51501D01*
Y36492D01*
X51506D01*
Y36496D01*
X51510D01*
Y36501D01*
X51514D01*
Y36505D01*
X51523D01*
Y36509D01*
X51528D01*
Y36514D01*
X51536D01*
Y36518D01*
X51545D01*
Y36523D01*
X51554D01*
Y36527D01*
X51567D01*
Y36531D01*
X51581D01*
Y36536D01*
X51598D01*
Y36540D01*
X51620D01*
Y36545D01*
X51717D01*
Y36540D01*
D02*
G37*
%LPC*%
G36*
X51946Y38872D02*
X51920D01*
Y38868D01*
X51902D01*
Y38863D01*
X51894D01*
Y38859D01*
X51889D01*
Y38855D01*
X51880D01*
Y38850D01*
X51876D01*
Y38841D01*
X51871D01*
Y38837D01*
X51867D01*
Y38828D01*
X51863D01*
Y38819D01*
X51858D01*
Y38797D01*
X51854D01*
Y38780D01*
X51858D01*
Y38758D01*
X51863D01*
Y38749D01*
X51867D01*
Y38740D01*
X51871D01*
Y38731D01*
X51876D01*
Y38727D01*
X51880D01*
Y38722D01*
X51889D01*
Y38718D01*
X51894D01*
Y38714D01*
X51902D01*
Y38709D01*
X51916D01*
Y38705D01*
X51955D01*
Y38709D01*
X51968D01*
Y38714D01*
X51977D01*
Y38718D01*
X51986D01*
Y38722D01*
X51990D01*
Y38727D01*
X51995D01*
Y38731D01*
X51999D01*
Y38740D01*
X52004D01*
Y38749D01*
X52008D01*
Y38758D01*
X52013D01*
Y38784D01*
X52017D01*
Y38793D01*
X52013D01*
Y38815D01*
X52008D01*
Y38828D01*
X52004D01*
Y38833D01*
X51999D01*
Y38841D01*
X51995D01*
Y38846D01*
X51990D01*
Y38850D01*
X51986D01*
Y38855D01*
X51982D01*
Y38859D01*
X51973D01*
Y38863D01*
X51964D01*
Y38868D01*
X51946D01*
Y38872D01*
D02*
G37*
%LPD*%
G36*
X51960Y38846D02*
X51968D01*
Y38841D01*
X51977D01*
Y38837D01*
X51982D01*
Y38828D01*
X51986D01*
Y38793D01*
X51982D01*
Y38784D01*
X51977D01*
Y38780D01*
X51973D01*
Y38775D01*
X51964D01*
Y38766D01*
X51968D01*
Y38758D01*
X51973D01*
Y38749D01*
X51977D01*
Y38740D01*
X51982D01*
Y38731D01*
X51986D01*
Y38727D01*
X51951D01*
Y38740D01*
X51946D01*
Y38749D01*
X51942D01*
Y38762D01*
X51938D01*
Y38766D01*
X51920D01*
Y38727D01*
X51889D01*
Y38850D01*
X51960D01*
Y38846D01*
D02*
G37*
%LPC*%
G36*
X50999Y38594D02*
X50902D01*
Y38590D01*
X50853D01*
Y38586D01*
X50822D01*
Y38581D01*
X50796D01*
Y38577D01*
X50778D01*
Y38572D01*
X50756D01*
Y38568D01*
X50743D01*
Y38564D01*
X50725D01*
Y38559D01*
X50712D01*
Y38555D01*
X50699D01*
Y38550D01*
X50686D01*
Y38546D01*
X50672D01*
Y38542D01*
X50659D01*
Y38537D01*
X50650D01*
Y38533D01*
X50637D01*
Y38528D01*
X50628D01*
Y38524D01*
X50620D01*
Y38520D01*
X50611D01*
Y38515D01*
X50602D01*
Y38511D01*
X50593D01*
Y38506D01*
X50584D01*
Y38502D01*
X50575D01*
Y38497D01*
X50567D01*
Y38493D01*
X50558D01*
Y38489D01*
X50549D01*
Y38484D01*
X50545D01*
Y38480D01*
X50536D01*
Y38475D01*
X50527D01*
Y38471D01*
X50523D01*
Y38467D01*
X50514D01*
Y38462D01*
X50505D01*
Y38458D01*
X50500D01*
Y38453D01*
X50492D01*
Y38449D01*
X50487D01*
Y38445D01*
X50478D01*
Y38440D01*
X50474D01*
Y38436D01*
X50465D01*
Y38431D01*
X50461D01*
Y38427D01*
X50456D01*
Y38423D01*
X50448D01*
Y38418D01*
X50443D01*
Y38414D01*
X50439D01*
Y38409D01*
X50430D01*
Y38405D01*
X50426D01*
Y38401D01*
X50421D01*
Y38396D01*
X50412D01*
Y38392D01*
X50408D01*
Y38387D01*
X50403D01*
Y38383D01*
X50399D01*
Y38378D01*
X50395D01*
Y38374D01*
X50386D01*
Y38370D01*
X50381D01*
Y38365D01*
X50377D01*
Y38361D01*
X50373D01*
Y38356D01*
X50368D01*
Y38352D01*
X50364D01*
Y38348D01*
X50359D01*
Y38343D01*
X50355D01*
Y38339D01*
X50346D01*
Y38334D01*
X50342D01*
Y38330D01*
X50337D01*
Y38326D01*
X50333D01*
Y38321D01*
X50329D01*
Y38317D01*
X50324D01*
Y38312D01*
X50320D01*
Y38308D01*
X50315D01*
Y38304D01*
X50311D01*
Y38299D01*
X50307D01*
Y38295D01*
X50302D01*
Y38290D01*
X50298D01*
Y38286D01*
X50293D01*
Y38281D01*
X50289D01*
Y38277D01*
X50284D01*
Y38273D01*
X50280D01*
Y38264D01*
X50276D01*
Y38259D01*
X50271D01*
Y38255D01*
X50267D01*
Y38251D01*
X50262D01*
Y38246D01*
X50258D01*
Y38242D01*
X50254D01*
Y38237D01*
X50249D01*
Y38233D01*
X50245D01*
Y38224D01*
X50240D01*
Y38220D01*
X50236D01*
Y38215D01*
X50232D01*
Y38211D01*
X50227D01*
Y38207D01*
X50223D01*
Y38198D01*
X50218D01*
Y38193D01*
X50214D01*
Y38189D01*
X50210D01*
Y38184D01*
X50205D01*
Y38180D01*
X50201D01*
Y38171D01*
X50196D01*
Y38167D01*
X50192D01*
Y38162D01*
X50187D01*
Y38154D01*
X50183D01*
Y38149D01*
X50179D01*
Y38145D01*
X50174D01*
Y38136D01*
X50170D01*
Y38132D01*
X50165D01*
Y38127D01*
X50161D01*
Y38118D01*
X50157D01*
Y38114D01*
X50152D01*
Y38105D01*
X50148D01*
Y38101D01*
X50143D01*
Y38096D01*
X50139D01*
Y38088D01*
X50135D01*
Y38083D01*
X50130D01*
Y38074D01*
X50126D01*
Y38070D01*
X50121D01*
Y38061D01*
X50117D01*
Y38057D01*
X50113D01*
Y38048D01*
X50108D01*
Y38043D01*
X50104D01*
Y38035D01*
X50099D01*
Y38026D01*
X50095D01*
Y38021D01*
X50091D01*
Y38013D01*
X50086D01*
Y38008D01*
X50082D01*
Y37999D01*
X50077D01*
Y37991D01*
X50073D01*
Y37986D01*
X50068D01*
Y37977D01*
X50064D01*
Y37968D01*
X50060D01*
Y37960D01*
X50055D01*
Y37955D01*
X50051D01*
Y37946D01*
X50046D01*
Y37938D01*
X50042D01*
Y37929D01*
X50038D01*
Y37920D01*
X50033D01*
Y37911D01*
X50029D01*
Y37907D01*
X50033D01*
Y37898D01*
X50038D01*
Y37889D01*
X50042D01*
Y37885D01*
X50046D01*
Y37876D01*
X50051D01*
Y37867D01*
X50055D01*
Y37858D01*
X50060D01*
Y37854D01*
X50064D01*
Y37845D01*
X50068D01*
Y37836D01*
X50073D01*
Y37827D01*
X50077D01*
Y37823D01*
X50082D01*
Y37814D01*
X50086D01*
Y37805D01*
X50091D01*
Y37801D01*
X50095D01*
Y37792D01*
X50099D01*
Y37788D01*
X50104D01*
Y37779D01*
X50108D01*
Y37775D01*
X50113D01*
Y37766D01*
X50117D01*
Y37761D01*
X50121D01*
Y37752D01*
X50126D01*
Y37744D01*
X50130D01*
Y37739D01*
X50135D01*
Y37735D01*
X50139D01*
Y37726D01*
X50143D01*
Y37722D01*
X50148D01*
Y37713D01*
X50152D01*
Y37708D01*
X50157D01*
Y37700D01*
X50161D01*
Y37695D01*
X50165D01*
Y37691D01*
X50170D01*
Y37682D01*
X50174D01*
Y37678D01*
X50179D01*
Y37673D01*
X50183D01*
Y37664D01*
X50187D01*
Y37660D01*
X50192D01*
Y37655D01*
X50196D01*
Y37647D01*
X50201D01*
Y37642D01*
X50205D01*
Y37638D01*
X50210D01*
Y37633D01*
X50214D01*
Y37625D01*
X50218D01*
Y37620D01*
X50223D01*
Y37616D01*
X50227D01*
Y37611D01*
X50232D01*
Y37607D01*
X50236D01*
Y37598D01*
X50240D01*
Y37594D01*
X50245D01*
Y37589D01*
X50249D01*
Y37585D01*
X50254D01*
Y37581D01*
X50258D01*
Y37576D01*
X50262D01*
Y37572D01*
X50267D01*
Y37563D01*
X50271D01*
Y37559D01*
X50276D01*
Y37554D01*
X50280D01*
Y37550D01*
X50284D01*
Y37545D01*
X50289D01*
Y37541D01*
X50293D01*
Y37536D01*
X50298D01*
Y37532D01*
X50302D01*
Y37528D01*
X50307D01*
Y37523D01*
X50311D01*
Y37519D01*
X50315D01*
Y37514D01*
X50320D01*
Y37510D01*
X50324D01*
Y37506D01*
X50329D01*
Y37501D01*
X50333D01*
Y37497D01*
X50337D01*
Y37492D01*
X50342D01*
Y37488D01*
X50346D01*
Y37484D01*
X50351D01*
Y37479D01*
X50355D01*
Y37475D01*
X50359D01*
Y37470D01*
X50368D01*
Y37466D01*
X50373D01*
Y37462D01*
X50377D01*
Y37457D01*
X50381D01*
Y37453D01*
X50386D01*
Y37448D01*
X50390D01*
Y37444D01*
X50395D01*
Y37439D01*
X50403D01*
Y37435D01*
X50408D01*
Y37431D01*
X50412D01*
Y37426D01*
X50417D01*
Y37422D01*
X50426D01*
Y37417D01*
X50430D01*
Y37413D01*
X50434D01*
Y37409D01*
X50439D01*
Y37404D01*
X50448D01*
Y37400D01*
X50452D01*
Y37395D01*
X50461D01*
Y37391D01*
X50465D01*
Y37387D01*
X50470D01*
Y37382D01*
X50478D01*
Y37378D01*
X50483D01*
Y37373D01*
X50492D01*
Y37369D01*
X50496D01*
Y37365D01*
X50505D01*
Y37360D01*
X50509D01*
Y37356D01*
X50518D01*
Y37351D01*
X50527D01*
Y37347D01*
X50531D01*
Y37343D01*
X50540D01*
Y37338D01*
X50549D01*
Y37334D01*
X50558D01*
Y37329D01*
X50562D01*
Y37325D01*
X50571D01*
Y37320D01*
X50580D01*
Y37316D01*
X50589D01*
Y37312D01*
X50597D01*
Y37307D01*
X50606D01*
Y37303D01*
X50615D01*
Y37298D01*
X50624D01*
Y37294D01*
X50637D01*
Y37290D01*
X50646D01*
Y37285D01*
X50659D01*
Y37281D01*
X50668D01*
Y37276D01*
X50681D01*
Y37272D01*
X50694D01*
Y37268D01*
X50708D01*
Y37263D01*
X50721D01*
Y37259D01*
X50734D01*
Y37254D01*
X50752D01*
Y37250D01*
X50769D01*
Y37246D01*
X50791D01*
Y37241D01*
X50813D01*
Y37237D01*
X50840D01*
Y37232D01*
X50884D01*
Y37228D01*
X51021D01*
Y37232D01*
X51056D01*
Y37237D01*
X51082D01*
Y37241D01*
X51109D01*
Y37246D01*
X51126D01*
Y37250D01*
X51144D01*
Y37254D01*
X51162D01*
Y37259D01*
X51175D01*
Y37263D01*
X51188D01*
Y37268D01*
X51201D01*
Y37272D01*
X51215D01*
Y37276D01*
X51228D01*
Y37281D01*
X51237D01*
Y37285D01*
X51245D01*
Y37290D01*
X51259D01*
Y37294D01*
X51268D01*
Y37298D01*
X51276D01*
Y37303D01*
X51285D01*
Y37307D01*
X51294D01*
Y37312D01*
X51303D01*
Y37316D01*
X51312D01*
Y37320D01*
X51320D01*
Y37325D01*
X51325D01*
Y37329D01*
X51334D01*
Y37334D01*
X51342D01*
Y37338D01*
X51347D01*
Y37343D01*
X51356D01*
Y37347D01*
X51360D01*
Y37351D01*
X51369D01*
Y37356D01*
X51373D01*
Y37360D01*
X51382D01*
Y37365D01*
X51387D01*
Y37369D01*
X51395D01*
Y37373D01*
X51400D01*
Y37378D01*
X51404D01*
Y37382D01*
X51413D01*
Y37387D01*
X51417D01*
Y37391D01*
X51422D01*
Y37395D01*
X51426D01*
Y37400D01*
X51431D01*
Y37404D01*
X51439D01*
Y37409D01*
X51444D01*
Y37413D01*
X51448D01*
Y37417D01*
X51453D01*
Y37422D01*
X51457D01*
Y37426D01*
X51462D01*
Y37431D01*
X51466D01*
Y37435D01*
X51470D01*
Y37439D01*
X51475D01*
Y37444D01*
X51479D01*
Y37448D01*
X51484D01*
Y37453D01*
X51488D01*
Y37457D01*
X51492D01*
Y37462D01*
X51497D01*
Y37466D01*
X51501D01*
Y37470D01*
X51506D01*
Y37475D01*
X51510D01*
Y37484D01*
X51514D01*
Y37488D01*
X51519D01*
Y37492D01*
X51523D01*
Y37497D01*
X51528D01*
Y37501D01*
X51532D01*
Y37510D01*
X51536D01*
Y37514D01*
X51541D01*
Y37519D01*
X51545D01*
Y37528D01*
X51550D01*
Y37532D01*
X51554D01*
Y37541D01*
X51558D01*
Y37545D01*
X51563D01*
Y37554D01*
X51567D01*
Y37559D01*
X51572D01*
Y37567D01*
X51576D01*
Y37572D01*
X51581D01*
Y37581D01*
X51585D01*
Y37589D01*
X51589D01*
Y37598D01*
X51594D01*
Y37603D01*
X51598D01*
Y37611D01*
X51603D01*
Y37620D01*
X51607D01*
Y37629D01*
X51611D01*
Y37638D01*
X51616D01*
Y37651D01*
X51620D01*
Y37660D01*
X51625D01*
Y37673D01*
X51629D01*
Y37682D01*
X51633D01*
Y37695D01*
X51638D01*
Y37708D01*
X51642D01*
Y37722D01*
X51647D01*
Y37735D01*
X51651D01*
Y37752D01*
X51655D01*
Y37770D01*
X51660D01*
Y37797D01*
X51664D01*
Y37823D01*
X51669D01*
Y37867D01*
X51673D01*
Y37955D01*
X51669D01*
Y37999D01*
X51664D01*
Y38026D01*
X51660D01*
Y38030D01*
Y38035D01*
Y38048D01*
X51655D01*
Y38065D01*
X51651D01*
Y38083D01*
X51647D01*
Y38101D01*
X51642D01*
Y38114D01*
X51638D01*
Y38127D01*
X51633D01*
Y38136D01*
X51629D01*
Y38149D01*
X51625D01*
Y38158D01*
X51620D01*
Y38171D01*
X51616D01*
Y38180D01*
X51611D01*
Y38189D01*
X51607D01*
Y38198D01*
X51603D01*
Y38207D01*
X51598D01*
Y38215D01*
X51594D01*
Y38224D01*
X51589D01*
Y38233D01*
X51585D01*
Y38242D01*
X51581D01*
Y38246D01*
X51576D01*
Y38255D01*
X51572D01*
Y38264D01*
X51567D01*
Y38268D01*
X51563D01*
Y38277D01*
X51558D01*
Y38281D01*
X51554D01*
Y38290D01*
X51550D01*
Y38295D01*
X51545D01*
Y38299D01*
X51541D01*
Y38308D01*
X51536D01*
Y38312D01*
X51532D01*
Y38317D01*
X51528D01*
Y38321D01*
X51523D01*
Y38330D01*
X51519D01*
Y38334D01*
X51514D01*
Y38339D01*
X51510D01*
Y38343D01*
X51506D01*
Y38348D01*
X51501D01*
Y38356D01*
X51497D01*
Y38361D01*
X51492D01*
Y38365D01*
X51488D01*
Y38370D01*
X51484D01*
Y38374D01*
X51479D01*
Y38378D01*
X51475D01*
Y38383D01*
X51470D01*
Y38387D01*
X51466D01*
Y38392D01*
X51462D01*
Y38396D01*
X51457D01*
Y38401D01*
X51453D01*
Y38405D01*
X51444D01*
Y38409D01*
X51439D01*
Y38414D01*
X51435D01*
Y38418D01*
X51431D01*
Y38423D01*
X51426D01*
Y38427D01*
X51422D01*
Y38431D01*
X51413D01*
Y38436D01*
X51409D01*
Y38440D01*
X51404D01*
Y38445D01*
X51395D01*
Y38449D01*
X51391D01*
Y38453D01*
X51387D01*
Y38458D01*
X51378D01*
Y38462D01*
X51373D01*
Y38467D01*
X51365D01*
Y38471D01*
X51360D01*
Y38475D01*
X51351D01*
Y38480D01*
X51347D01*
Y38484D01*
X51338D01*
Y38489D01*
X51329D01*
Y38493D01*
X51325D01*
Y38497D01*
X51316D01*
Y38502D01*
X51307D01*
Y38506D01*
X51298D01*
Y38511D01*
X51290D01*
Y38515D01*
X51281D01*
Y38520D01*
X51272D01*
Y38524D01*
X51263D01*
Y38528D01*
X51254D01*
Y38533D01*
X51245D01*
Y38537D01*
X51232D01*
Y38542D01*
X51223D01*
Y38546D01*
X51210D01*
Y38550D01*
X51197D01*
Y38555D01*
X51184D01*
Y38559D01*
X51171D01*
Y38564D01*
X51157D01*
Y38568D01*
X51140D01*
Y38572D01*
X51122D01*
Y38577D01*
X51100D01*
Y38581D01*
X51078D01*
Y38586D01*
X51047D01*
Y38590D01*
X50999D01*
Y38594D01*
D02*
G37*
G36*
X48737D02*
X48645D01*
Y38590D01*
X48596D01*
Y38586D01*
X48565D01*
Y38581D01*
X48543D01*
Y38577D01*
X48521D01*
Y38572D01*
X48504D01*
Y38568D01*
X48486D01*
Y38564D01*
X48473D01*
Y38559D01*
X48459D01*
Y38555D01*
X48446D01*
Y38550D01*
X48433D01*
Y38546D01*
X48420D01*
Y38542D01*
X48411D01*
Y38537D01*
X48398D01*
Y38533D01*
X48389D01*
Y38528D01*
X48380D01*
Y38524D01*
X48367D01*
Y38520D01*
X48362D01*
Y38515D01*
X48349D01*
Y38511D01*
X48345D01*
Y38506D01*
X48336D01*
Y38502D01*
X48327D01*
Y38497D01*
X48318D01*
Y38493D01*
X48310D01*
Y38489D01*
X48305D01*
Y38484D01*
X48296D01*
Y38480D01*
X48288D01*
Y38475D01*
X48283D01*
Y38471D01*
X48274D01*
Y38467D01*
X48270D01*
Y38462D01*
X48261D01*
Y38458D01*
X48257D01*
Y38453D01*
X48252D01*
Y38449D01*
X48243D01*
Y38445D01*
X48239D01*
Y38440D01*
X48235D01*
Y38436D01*
X48226D01*
Y38431D01*
X48221D01*
Y38427D01*
X48217D01*
Y38423D01*
X48213D01*
Y38418D01*
X48208D01*
Y38414D01*
X48199D01*
Y38409D01*
X48195D01*
Y38405D01*
X48191D01*
Y38401D01*
X48186D01*
Y38396D01*
X48182D01*
Y38392D01*
X48177D01*
Y38387D01*
X48173D01*
Y38383D01*
X48168D01*
Y38378D01*
X48164D01*
Y38374D01*
X48160D01*
Y38370D01*
X48155D01*
Y38365D01*
X48151D01*
Y38361D01*
X48146D01*
Y38356D01*
X48142D01*
Y38352D01*
X48138D01*
Y38348D01*
X48133D01*
Y38339D01*
X48129D01*
Y38334D01*
X48124D01*
Y38330D01*
X48120D01*
Y38326D01*
X48116D01*
Y38321D01*
X48111D01*
Y38312D01*
X48107D01*
Y38308D01*
X48102D01*
Y38304D01*
X48098D01*
Y38295D01*
X48094D01*
Y38290D01*
X48089D01*
Y38281D01*
X48085D01*
Y38277D01*
X48080D01*
Y38273D01*
X48076D01*
Y38264D01*
X48071D01*
Y38255D01*
X48067D01*
Y38251D01*
X48063D01*
Y38242D01*
X48058D01*
Y38233D01*
X48054D01*
Y38229D01*
X48049D01*
Y38220D01*
X48045D01*
Y38211D01*
X48041D01*
Y38202D01*
X48036D01*
Y38193D01*
X48032D01*
Y38184D01*
X48027D01*
Y38176D01*
X48023D01*
Y38162D01*
X48019D01*
Y38154D01*
X48014D01*
Y38140D01*
X48010D01*
Y38127D01*
X48005D01*
Y38118D01*
X48001D01*
Y38105D01*
X47997D01*
Y38088D01*
X47992D01*
Y38074D01*
Y38070D01*
X47988D01*
Y38052D01*
X47983D01*
Y38030D01*
X47979D01*
Y38008D01*
X47975D01*
Y37968D01*
X47970D01*
Y37849D01*
X47975D01*
Y37814D01*
X47979D01*
Y37788D01*
X47983D01*
Y37766D01*
X47988D01*
Y37748D01*
X47992D01*
Y37730D01*
X47997D01*
Y37717D01*
X48001D01*
Y37704D01*
X48005D01*
Y37691D01*
X48010D01*
Y37678D01*
X48014D01*
Y37669D01*
X48019D01*
Y37655D01*
X48023D01*
Y37647D01*
X48027D01*
Y37638D01*
X48032D01*
Y37629D01*
X48036D01*
Y37620D01*
X48041D01*
Y37611D01*
X48045D01*
Y37603D01*
X48049D01*
Y37594D01*
X48054D01*
Y37585D01*
X48058D01*
Y37581D01*
X48063D01*
Y37572D01*
X48067D01*
Y37563D01*
X48071D01*
Y37559D01*
X48076D01*
Y37550D01*
X48080D01*
Y37545D01*
X48085D01*
Y37536D01*
X48089D01*
Y37532D01*
X48094D01*
Y37523D01*
X48098D01*
Y37519D01*
X48102D01*
Y37514D01*
X48107D01*
Y37506D01*
X48111D01*
Y37501D01*
X48116D01*
Y37497D01*
X48120D01*
Y37492D01*
X48124D01*
Y37484D01*
X48129D01*
Y37479D01*
X48133D01*
Y37475D01*
X48138D01*
Y37470D01*
X48142D01*
Y37466D01*
X48146D01*
Y37462D01*
X48151D01*
Y37457D01*
X48155D01*
Y37453D01*
X48160D01*
Y37448D01*
X48164D01*
Y37444D01*
X48168D01*
Y37439D01*
X48173D01*
Y37435D01*
X48177D01*
Y37431D01*
X48182D01*
Y37426D01*
X48186D01*
Y37422D01*
X48191D01*
Y37417D01*
X48195D01*
Y37413D01*
X48199D01*
Y37409D01*
X48204D01*
Y37404D01*
X48208D01*
Y37400D01*
X48217D01*
Y37395D01*
X48221D01*
Y37391D01*
X48226D01*
Y37387D01*
X48230D01*
Y37382D01*
X48239D01*
Y37378D01*
X48243D01*
Y37373D01*
X48248D01*
Y37369D01*
X48257D01*
Y37365D01*
X48261D01*
Y37360D01*
X48265D01*
Y37356D01*
X48274D01*
Y37351D01*
X48279D01*
Y37347D01*
X48288D01*
Y37343D01*
X48296D01*
Y37338D01*
X48301D01*
Y37334D01*
X48310D01*
Y37329D01*
X48314D01*
Y37325D01*
X48323D01*
Y37320D01*
X48332D01*
Y37316D01*
X48340D01*
Y37312D01*
X48349D01*
Y37307D01*
X48358D01*
Y37303D01*
X48367D01*
Y37298D01*
X48376D01*
Y37294D01*
X48384D01*
Y37290D01*
X48398D01*
Y37285D01*
X48407D01*
Y37281D01*
X48415D01*
Y37276D01*
X48429D01*
Y37272D01*
X48442D01*
Y37268D01*
X48455D01*
Y37263D01*
X48468D01*
Y37259D01*
X48481D01*
Y37254D01*
X48499D01*
Y37250D01*
X48517D01*
Y37246D01*
X48534D01*
Y37241D01*
X48556D01*
Y37237D01*
X48583D01*
Y37232D01*
X48623D01*
Y37228D01*
X48759D01*
Y37232D01*
X48799D01*
Y37237D01*
X48830D01*
Y37241D01*
X48852D01*
Y37246D01*
X48874D01*
Y37250D01*
X48891D01*
Y37254D01*
X48905D01*
Y37259D01*
X48922D01*
Y37263D01*
X48936D01*
Y37268D01*
X48949D01*
Y37272D01*
X48962D01*
Y37276D01*
X48975D01*
Y37281D01*
X48984D01*
Y37285D01*
X48997D01*
Y37290D01*
X49006D01*
Y37294D01*
X49015D01*
Y37298D01*
X49024D01*
Y37303D01*
X49037D01*
Y37307D01*
X49046D01*
Y37312D01*
X49055D01*
Y37316D01*
X49063D01*
Y37320D01*
X49072D01*
Y37325D01*
X49077D01*
Y37329D01*
X49085D01*
Y37334D01*
X49094D01*
Y37338D01*
X49103D01*
Y37343D01*
X49112D01*
Y37347D01*
X49116D01*
Y37351D01*
X49125D01*
Y37356D01*
X49129D01*
Y37360D01*
X49138D01*
Y37365D01*
X49147D01*
Y37369D01*
X49152D01*
Y37373D01*
X49156D01*
Y37378D01*
X49165D01*
Y37382D01*
X49169D01*
Y37387D01*
X49178D01*
Y37391D01*
X49182D01*
Y37395D01*
X49191D01*
Y37400D01*
X49196D01*
Y37404D01*
X49200D01*
Y37409D01*
X49209D01*
Y37413D01*
X49213D01*
Y37417D01*
X49218D01*
Y37422D01*
X49222D01*
Y37426D01*
X49231D01*
Y37431D01*
X49235D01*
Y37435D01*
X49240D01*
Y37439D01*
X49244D01*
Y37444D01*
X49253D01*
Y37448D01*
X49257D01*
Y37453D01*
X49262D01*
Y37457D01*
X49266D01*
Y37462D01*
X49271D01*
Y37466D01*
X49275D01*
Y37470D01*
X49279D01*
Y37475D01*
X49288D01*
Y37479D01*
X49293D01*
Y37484D01*
X49297D01*
Y37488D01*
X49301D01*
Y37492D01*
X49306D01*
Y37497D01*
X49310D01*
Y37501D01*
X49315D01*
Y37506D01*
X49319D01*
Y37510D01*
X49323D01*
Y37514D01*
X49328D01*
Y37519D01*
X49332D01*
Y37523D01*
X49337D01*
Y37528D01*
X49341D01*
Y37532D01*
X49345D01*
Y37536D01*
X49350D01*
Y37541D01*
X49354D01*
Y37545D01*
X49359D01*
Y37550D01*
X49363D01*
Y37554D01*
X49368D01*
Y37563D01*
X49372D01*
Y37567D01*
X49376D01*
Y37572D01*
X49381D01*
Y37576D01*
X49385D01*
Y37581D01*
X49390D01*
Y37585D01*
X49394D01*
Y37589D01*
X49398D01*
Y37598D01*
X49403D01*
Y37603D01*
X49407D01*
Y37607D01*
X49412D01*
Y37611D01*
X49416D01*
Y37616D01*
X49420D01*
Y37620D01*
X49425D01*
Y37629D01*
X49429D01*
Y37633D01*
X49434D01*
Y37638D01*
X49438D01*
Y37642D01*
X49442D01*
Y37651D01*
X49447D01*
Y37655D01*
X49451D01*
Y37660D01*
X49456D01*
Y37669D01*
X49460D01*
Y37673D01*
X49465D01*
Y37678D01*
X49469D01*
Y37686D01*
X49473D01*
Y37691D01*
X49478D01*
Y37695D01*
X49482D01*
Y37704D01*
X49487D01*
Y37708D01*
X49491D01*
Y37717D01*
X49495D01*
Y37722D01*
X49500D01*
Y37726D01*
X49504D01*
Y37735D01*
X49509D01*
Y37739D01*
X49513D01*
Y37748D01*
X49517D01*
Y37752D01*
X49522D01*
Y37761D01*
X49526D01*
Y37766D01*
X49531D01*
Y37775D01*
X49535D01*
Y37779D01*
X49539D01*
Y37788D01*
X49544D01*
Y37797D01*
X49548D01*
Y37801D01*
X49553D01*
Y37810D01*
X49557D01*
Y37814D01*
X49562D01*
Y37823D01*
X49566D01*
Y37832D01*
X49570D01*
Y37836D01*
X49575D01*
Y37845D01*
X49579D01*
Y37854D01*
X49584D01*
Y37863D01*
X49588D01*
Y37867D01*
X49592D01*
Y37876D01*
X49597D01*
Y37885D01*
X49601D01*
Y37894D01*
X49606D01*
Y37902D01*
X49610D01*
Y37920D01*
X49606D01*
Y37929D01*
X49601D01*
Y37938D01*
X49597D01*
Y37946D01*
X49592D01*
Y37951D01*
X49588D01*
Y37960D01*
X49584D01*
Y37968D01*
X49579D01*
Y37977D01*
X49575D01*
Y37982D01*
X49570D01*
Y37991D01*
X49566D01*
Y37999D01*
X49562D01*
Y38004D01*
X49557D01*
Y38013D01*
X49553D01*
Y38017D01*
X49548D01*
Y38026D01*
X49544D01*
Y38035D01*
X49539D01*
Y38039D01*
X49535D01*
Y38048D01*
X49531D01*
Y38052D01*
X49526D01*
Y38061D01*
X49522D01*
Y38065D01*
X49517D01*
Y38074D01*
X49513D01*
Y38079D01*
X49509D01*
Y38088D01*
X49504D01*
Y38092D01*
X49500D01*
Y38101D01*
X49495D01*
Y38105D01*
X49491D01*
Y38110D01*
X49487D01*
Y38118D01*
X49482D01*
Y38123D01*
X49478D01*
Y38132D01*
X49473D01*
Y38136D01*
X49469D01*
Y38140D01*
X49465D01*
Y38149D01*
X49460D01*
Y38154D01*
X49456D01*
Y38158D01*
X49451D01*
Y38167D01*
X49447D01*
Y38171D01*
X49442D01*
Y38176D01*
X49438D01*
Y38180D01*
X49434D01*
Y38189D01*
X49429D01*
Y38193D01*
X49425D01*
Y38198D01*
X49420D01*
Y38202D01*
X49416D01*
Y38211D01*
X49412D01*
Y38215D01*
X49407D01*
Y38220D01*
X49403D01*
Y38224D01*
X49398D01*
Y38229D01*
X49394D01*
Y38233D01*
X49390D01*
Y38242D01*
X49385D01*
Y38246D01*
X49381D01*
Y38251D01*
X49376D01*
Y38255D01*
X49372D01*
Y38259D01*
X49368D01*
Y38264D01*
X49363D01*
Y38268D01*
X49359D01*
Y38273D01*
X49354D01*
Y38277D01*
X49350D01*
Y38281D01*
X49345D01*
Y38286D01*
X49341D01*
Y38295D01*
X49337D01*
Y38299D01*
X49332D01*
Y38304D01*
X49328D01*
Y38308D01*
X49323D01*
Y38312D01*
X49319D01*
Y38317D01*
X49315D01*
Y38321D01*
X49306D01*
Y38326D01*
X49301D01*
Y38330D01*
X49297D01*
Y38334D01*
X49293D01*
Y38339D01*
X49288D01*
Y38343D01*
X49284D01*
Y38348D01*
X49279D01*
Y38352D01*
X49275D01*
Y38356D01*
X49271D01*
Y38361D01*
X49266D01*
Y38365D01*
X49262D01*
Y38370D01*
X49253D01*
Y38374D01*
X49249D01*
Y38378D01*
X49244D01*
Y38383D01*
X49240D01*
Y38387D01*
X49235D01*
Y38392D01*
X49226D01*
Y38396D01*
X49222D01*
Y38401D01*
X49218D01*
Y38405D01*
X49213D01*
Y38409D01*
X49204D01*
Y38414D01*
X49200D01*
Y38418D01*
X49196D01*
Y38423D01*
X49187D01*
Y38427D01*
X49182D01*
Y38431D01*
X49174D01*
Y38436D01*
X49169D01*
Y38440D01*
X49160D01*
Y38445D01*
X49156D01*
Y38449D01*
X49152D01*
Y38453D01*
X49143D01*
Y38458D01*
X49134D01*
Y38462D01*
X49129D01*
Y38467D01*
X49121D01*
Y38471D01*
X49116D01*
Y38475D01*
X49107D01*
Y38480D01*
X49099D01*
Y38484D01*
X49090D01*
Y38489D01*
X49085D01*
Y38493D01*
X49077D01*
Y38497D01*
X49068D01*
Y38502D01*
X49059D01*
Y38506D01*
X49050D01*
Y38511D01*
X49041D01*
Y38515D01*
X49033D01*
Y38520D01*
X49024D01*
Y38524D01*
X49015D01*
Y38528D01*
X49002D01*
Y38533D01*
X48993D01*
Y38537D01*
X48980D01*
Y38542D01*
X48971D01*
Y38546D01*
X48958D01*
Y38550D01*
X48944D01*
Y38555D01*
X48931D01*
Y38559D01*
X48918D01*
Y38564D01*
X48900D01*
Y38568D01*
X48883D01*
Y38572D01*
X48865D01*
Y38577D01*
X48843D01*
Y38581D01*
X48821D01*
Y38586D01*
X48786D01*
Y38590D01*
X48737D01*
Y38594D01*
D02*
G37*
%LPD*%
G36*
X51025Y38013D02*
X51245D01*
Y37801D01*
X51025D01*
Y37581D01*
X51021D01*
Y37576D01*
X50813D01*
Y37581D01*
X50809D01*
Y37801D01*
X50589D01*
Y37911D01*
Y37916D01*
Y38013D01*
X50809D01*
Y38237D01*
X51025D01*
Y38013D01*
D02*
G37*
G36*
X49046Y37801D02*
X48389D01*
Y38013D01*
X49046D01*
Y37801D01*
D02*
G37*
%LPC*%
G36*
X49213Y36412D02*
X49125D01*
Y36051D01*
X49218D01*
Y36055D01*
X49240D01*
Y36060D01*
X49249D01*
Y36064D01*
X49262D01*
Y36068D01*
X49266D01*
Y36073D01*
X49275D01*
Y36077D01*
X49279D01*
Y36082D01*
X49284D01*
Y36086D01*
X49288D01*
Y36095D01*
X49293D01*
Y36099D01*
X49297D01*
Y36108D01*
X49301D01*
Y36121D01*
X49306D01*
Y36135D01*
X49310D01*
Y36161D01*
X49315D01*
Y36232D01*
Y36236D01*
Y36302D01*
X49310D01*
Y36329D01*
X49306D01*
Y36342D01*
X49301D01*
Y36355D01*
X49297D01*
Y36364D01*
X49293D01*
Y36368D01*
X49288D01*
Y36377D01*
X49284D01*
Y36381D01*
X49279D01*
Y36386D01*
X49271D01*
Y36390D01*
X49266D01*
Y36395D01*
X49257D01*
Y36399D01*
X49249D01*
Y36404D01*
X49235D01*
Y36408D01*
X49213D01*
Y36412D01*
D02*
G37*
G36*
X48636D02*
X48521D01*
Y36240D01*
X48627D01*
Y36245D01*
X48640D01*
Y36249D01*
X48649D01*
Y36254D01*
X48658D01*
Y36258D01*
X48662D01*
Y36262D01*
X48667D01*
Y36267D01*
X48671D01*
Y36271D01*
X48675D01*
Y36280D01*
X48680D01*
Y36289D01*
X48684D01*
Y36311D01*
X48689D01*
Y36351D01*
X48684D01*
Y36373D01*
X48680D01*
Y36381D01*
X48675D01*
Y36390D01*
X48671D01*
Y36395D01*
X48667D01*
Y36399D01*
X48658D01*
Y36404D01*
X48649D01*
Y36408D01*
X48636D01*
Y36412D01*
D02*
G37*
G36*
X47988Y36386D02*
X47983D01*
Y36377D01*
X47979D01*
Y36359D01*
X47975D01*
Y36342D01*
X47970D01*
Y36324D01*
X47966D01*
Y36307D01*
X47961D01*
Y36289D01*
X47957D01*
Y36271D01*
X47952D01*
Y36254D01*
X47948D01*
Y36236D01*
X47944D01*
Y36218D01*
X47939D01*
Y36201D01*
X47935D01*
Y36183D01*
X47930D01*
Y36165D01*
X48045D01*
Y36179D01*
X48041D01*
Y36192D01*
X48036D01*
Y36210D01*
X48032D01*
Y36227D01*
X48027D01*
Y36240D01*
X48023D01*
Y36258D01*
X48019D01*
Y36276D01*
X48014D01*
Y36293D01*
X48010D01*
Y36307D01*
X48005D01*
Y36324D01*
X48001D01*
Y36342D01*
X47997D01*
Y36355D01*
X47992D01*
Y36373D01*
X47988D01*
Y36386D01*
D02*
G37*
G36*
X51700Y36421D02*
X51633D01*
Y36417D01*
X51620D01*
Y36412D01*
X51611D01*
Y36408D01*
X51607D01*
Y36404D01*
X51603D01*
Y36399D01*
X51598D01*
Y36395D01*
X51594D01*
Y36386D01*
X51589D01*
Y36377D01*
X51585D01*
Y36368D01*
X51581D01*
Y36351D01*
X51576D01*
Y36320D01*
X51572D01*
Y36267D01*
Y36262D01*
Y36135D01*
X51576D01*
Y36108D01*
X51581D01*
Y36095D01*
X51585D01*
Y36082D01*
X51589D01*
Y36073D01*
X51594D01*
Y36068D01*
X51598D01*
Y36064D01*
X51603D01*
Y36060D01*
X51607D01*
Y36055D01*
X51611D01*
Y36051D01*
X51620D01*
Y36046D01*
X51629D01*
Y36042D01*
X51647D01*
Y36038D01*
X51686D01*
Y36042D01*
X51708D01*
Y36046D01*
X51717D01*
Y36051D01*
X51726D01*
Y36055D01*
X51730D01*
Y36060D01*
X51735D01*
Y36064D01*
X51739D01*
Y36068D01*
X51744D01*
Y36073D01*
X51748D01*
Y36082D01*
X51752D01*
Y36095D01*
X51757D01*
Y36108D01*
X51761D01*
Y36135D01*
X51766D01*
Y36329D01*
X51761D01*
Y36355D01*
X51757D01*
Y36373D01*
X51752D01*
Y36381D01*
X51748D01*
Y36390D01*
X51744D01*
Y36395D01*
X51739D01*
Y36399D01*
X51735D01*
Y36404D01*
X51730D01*
Y36408D01*
X51726D01*
Y36412D01*
X51717D01*
Y36417D01*
X51700D01*
Y36421D01*
D02*
G37*
%LPD*%
D10*
X36140Y36907D02*
G03*
X36140Y36907I-50J0D01*
G01*
X28500Y36227D02*
G03*
X28574Y36405I-178J178D01*
G01*
X27788Y36172D02*
G03*
X27862Y35993I252J0D01*
G01*
X28205Y35931D02*
X28500Y36227D01*
X27862Y35993D02*
X28205Y35650D01*
X28574Y36405D02*
Y36603D01*
X27788Y36172D02*
Y36403D01*
D11*
X36065Y36028D02*
G03*
X36065Y35487I0J-270D01*
G01*
X35783Y39700D02*
Y40200D01*
X31183D02*
X35783D01*
X33733Y39250D02*
X33933D01*
X33733Y38950D02*
Y39550D01*
X33383Y39750D02*
X33583D01*
Y38750D02*
Y39750D01*
X33383Y38750D02*
X33583D01*
X33383D02*
Y39750D01*
X33233Y38950D02*
Y39550D01*
X33033Y39250D02*
X33233D01*
X35783Y38300D02*
Y38800D01*
X31183Y38300D02*
Y38800D01*
Y39700D02*
Y40200D01*
Y38300D02*
X35783D01*
X31915Y36657D02*
X32030Y36657D01*
X35950Y36657D02*
X36065Y36657D01*
X31915Y34857D02*
X32030Y34857D01*
X35950Y34857D02*
X36065Y34857D01*
X31915D02*
Y36657D01*
X36065Y34857D02*
Y36657D01*
X28426Y36748D02*
X28721D01*
Y36453D02*
Y36748D01*
X28426Y36453D02*
X28721Y36453D01*
X28426Y36453D02*
Y36748D01*
X27983Y37004D02*
X28377D01*
X27983D02*
X28180Y37280D01*
X28377Y37004D01*
X46370Y30000D02*
Y34600D01*
X47770D02*
X48270D01*
X46370D02*
X46870D01*
X46370Y30000D02*
X46870D01*
X47320Y32550D02*
Y32750D01*
X47020Y32550D02*
X47620D01*
X46820Y32400D02*
X47820D01*
X46820Y32200D02*
Y32400D01*
Y32200D02*
X47820D01*
Y32400D01*
X47020Y32050D02*
X47620D01*
X47320Y31850D02*
Y32050D01*
X48270Y30000D02*
Y34600D01*
X47770Y30000D02*
X48270D01*
D12*
X27867Y36414D02*
G03*
X27867Y36414I-79J0D01*
G01*
X28180Y35353D02*
Y37103D01*
X43220Y39560D02*
Y38810D01*
X43370Y38660D01*
X43670D01*
X43820Y38810D01*
Y39560D01*
X44120Y38660D02*
Y39560D01*
X44720Y38660D01*
Y39560D01*
X45469D02*
X45169D01*
X45019Y39410D01*
Y38810D01*
X45169Y38660D01*
X45469D01*
X45619Y38810D01*
Y39410D01*
X45469Y39560D01*
D13*
X28280Y35337D02*
G03*
X28280Y35337I-100J0D01*
G01*
D14*
X33681Y28741D02*
G03*
X33681Y28741I-49J0D01*
G01*
X30161Y26071D02*
G03*
X30161Y26071I-49J0D01*
G01*
X37847Y29514D02*
G03*
X37847Y29514I-49J0D01*
G01*
D15*
X38762Y29000D02*
G03*
X38762Y29000I-118J0D01*
G01*
D16*
X37810Y41160D02*
X50100Y41110D01*
X35086Y40970D02*
X35266D01*
X35086Y40430D02*
X35266D01*
X37714Y39270D02*
X37894D01*
X37714Y38730D02*
X37894D01*
X37756Y37908D02*
X37936D01*
X37756Y38448D02*
X37936D01*
X37786Y37578D02*
X37966D01*
X37786Y37038D02*
X37966D01*
X37786Y35938D02*
X37966D01*
X37786Y35398D02*
X37966D01*
X39070Y38532D02*
Y38712D01*
X39610Y38532D02*
Y38712D01*
X39050Y35243D02*
Y35424D01*
X39590Y35243D02*
Y35424D01*
X39610Y36844D02*
Y37024D01*
X39070Y36844D02*
Y37024D01*
X37734Y40950D02*
X37914D01*
X37734Y40410D02*
X37914D01*
X37824Y35028D02*
X38004D01*
X37824Y34488D02*
X38004D01*
X48840Y34046D02*
Y34226D01*
X49380Y34046D02*
Y34226D01*
X50140Y32596D02*
Y32776D01*
X50680Y32596D02*
Y32776D01*
X49410Y32126D02*
Y32306D01*
X48870Y32126D02*
Y32306D01*
X40510Y25914D02*
Y26094D01*
X41050Y25914D02*
Y26094D01*
X39540Y25944D02*
Y26124D01*
X40080Y25944D02*
Y26124D01*
X38570Y25974D02*
Y26154D01*
X39110Y25974D02*
Y26154D01*
X37550Y25994D02*
Y26174D01*
X38090Y25994D02*
Y26174D01*
X39684Y31510D02*
X39864D01*
X39684Y32050D02*
X39864D01*
X36504Y31510D02*
X36684D01*
X36504Y32050D02*
X36684D01*
X34946Y31510D02*
X35126D01*
X34946Y32050D02*
X35126D01*
X24740Y22400D02*
Y25700D01*
X30190Y22400D02*
Y25700D01*
X24740D02*
X30190D01*
X24740Y22400D02*
X30190D01*
X25440D02*
Y25700D01*
X49430Y30286D02*
Y30466D01*
X48890Y30286D02*
Y30466D01*
X31716Y41010D02*
X31896D01*
X31716Y40470D02*
X31896D01*
X33326D02*
X33506D01*
X33326Y41010D02*
X33506D01*
D17*
X51060Y42240D02*
Y43240D01*
X43962Y42240D02*
Y43240D01*
X52158D01*
Y42240D02*
Y43240D01*
X43962Y42240D02*
X52158D01*
X33451D02*
X42800D01*
X43648D01*
Y43240D01*
X33451D02*
X43648D01*
X33451Y42240D02*
Y43240D01*
X42550Y42240D02*
Y43240D01*
X47450Y21650D02*
Y22650D01*
X46352Y21650D02*
X52548D01*
X46352Y22650D02*
X52548D01*
X46352Y21650D02*
Y22650D01*
X52548Y21650D02*
Y22650D01*
X38910Y21650D02*
Y22650D01*
X46009Y21650D02*
Y22650D01*
X37812Y21650D02*
X46009D01*
X37812D02*
Y22650D01*
X46009D01*
X53250Y25190D02*
Y26190D01*
X49250Y25190D02*
X53250D01*
X49250Y26190D02*
X53250D01*
X49250Y25190D02*
Y26190D01*
X50250Y25190D02*
Y26190D01*
X53240Y26380D02*
Y27380D01*
X49240Y26380D02*
X53240D01*
X49240Y27380D02*
X53240D01*
X49240Y26380D02*
Y27380D01*
X50240Y26380D02*
Y27380D01*
X35335Y41051D02*
X35864D01*
X34484D02*
X35030D01*
X34484Y40351D02*
X35030D01*
X35335D02*
X35864D01*
X34484D02*
Y41051D01*
X35864Y40351D02*
Y41051D01*
X37113Y38644D02*
Y39354D01*
Y38644D02*
X37658D01*
X37113Y39354D02*
X37658D01*
X37963D02*
X38491D01*
Y38644D02*
Y39354D01*
X37963Y38644D02*
X38491D01*
X37157Y37827D02*
X37687D01*
X37992D02*
X38537D01*
X37992Y38527D02*
X38537D01*
X37157D02*
X37687D01*
X38537Y37827D02*
Y38527D01*
X37157Y37827D02*
Y38527D01*
X37185Y36952D02*
Y37662D01*
Y36952D02*
X37730D01*
X37185Y37662D02*
X37730D01*
X38035D02*
X38563D01*
Y36952D02*
Y37662D01*
X38035Y36952D02*
X38563D01*
X37185Y35312D02*
Y36022D01*
Y35312D02*
X37730D01*
X37185Y36022D02*
X37730D01*
X38035D02*
X38563D01*
Y35312D02*
Y36022D01*
X38035Y35312D02*
X38563D01*
X38986Y37931D02*
X39696D01*
Y38475D01*
X38986Y37931D02*
Y38475D01*
Y38781D02*
Y39309D01*
X39696D01*
Y38781D02*
Y39309D01*
X38968Y35493D02*
Y36022D01*
Y34642D02*
Y35187D01*
X39668Y34642D02*
Y35187D01*
Y35493D02*
Y36022D01*
X38968Y34642D02*
X39668D01*
X38968Y36022D02*
X39668D01*
X39691Y36245D02*
Y36775D01*
Y37080D02*
Y37625D01*
X38991Y37080D02*
Y37625D01*
Y36245D02*
Y36775D01*
Y37625D02*
X39691D01*
X38991Y36245D02*
X39691D01*
X37133Y40324D02*
Y41034D01*
Y40324D02*
X37678D01*
X37133Y41034D02*
X37678D01*
X37983D02*
X38511D01*
Y40324D02*
Y41034D01*
X37983Y40324D02*
X38511D01*
X38073Y35109D02*
X38602D01*
X37222D02*
X37768D01*
X37222Y34409D02*
X37768D01*
X38073D02*
X38602D01*
X37222D02*
Y35109D01*
X38602Y34409D02*
Y35109D01*
X31920Y32640D02*
Y33640D01*
X35920D01*
X31920Y32640D02*
X35920D01*
Y33640D01*
X34920Y32640D02*
Y33640D01*
X48759Y34295D02*
Y34824D01*
Y33444D02*
Y33990D01*
X49459Y33444D02*
Y33990D01*
Y34295D02*
Y34824D01*
X48759Y33444D02*
X49459D01*
X48759Y34824D02*
X49459D01*
X50059Y32845D02*
Y33374D01*
Y31994D02*
Y32540D01*
X50759Y31994D02*
Y32540D01*
Y32845D02*
Y33374D01*
X50059Y31994D02*
X50759D01*
X50059Y33374D02*
X50759D01*
X48784Y32907D02*
X49494D01*
X48784Y32362D02*
Y32907D01*
X49494Y32362D02*
Y32907D01*
Y31529D02*
Y32057D01*
X48784Y31529D02*
X49494D01*
X48784D02*
Y32057D01*
X53240Y27580D02*
Y28580D01*
X49240Y27580D02*
X53240D01*
X49240Y28580D02*
X53240D01*
X49240Y27580D02*
Y28580D01*
X50240Y27580D02*
Y28580D01*
X40429Y26163D02*
Y26692D01*
Y25312D02*
Y25858D01*
X41129Y25312D02*
Y25858D01*
Y26163D02*
Y26692D01*
X40429Y25312D02*
X41129D01*
X40429Y26692D02*
X41129D01*
X39459Y26193D02*
Y26722D01*
Y25342D02*
Y25888D01*
X40159Y25342D02*
Y25888D01*
Y26193D02*
Y26722D01*
X39459Y25342D02*
X40159D01*
X39459Y26722D02*
X40159D01*
X38489Y26223D02*
Y26752D01*
Y25372D02*
Y25918D01*
X39189Y25372D02*
Y25918D01*
Y26223D02*
Y26752D01*
X38489Y25372D02*
X39189D01*
X38489Y26752D02*
X39189D01*
X37469Y26243D02*
Y26772D01*
Y25392D02*
Y25938D01*
X38169Y25392D02*
Y25938D01*
Y26243D02*
Y26772D01*
X37469Y25392D02*
X38169D01*
X37469Y26772D02*
X38169D01*
X40465Y31426D02*
Y32136D01*
X39920D02*
X40465D01*
X39920Y31426D02*
X40465D01*
X39087D02*
X39615D01*
X39087D02*
Y32136D01*
X39615D01*
X31939Y31379D02*
X33041D01*
X31939Y28741D02*
X33041D01*
X31939D02*
Y31379D01*
X33041Y28741D02*
Y31379D01*
X28419Y28709D02*
X29521D01*
X28419Y26071D02*
X29521D01*
X28419D02*
Y28709D01*
X29521Y26071D02*
Y28709D01*
X37285Y31426D02*
Y32136D01*
X36740D02*
X37285D01*
X36740Y31426D02*
X37285D01*
X35907D02*
X36435D01*
X35907D02*
Y32136D01*
X36435D01*
X35727Y31426D02*
Y32136D01*
X35182D02*
X35727D01*
X35182Y31426D02*
X35727D01*
X34349D02*
X34877D01*
X34349D02*
Y32136D01*
X34877D01*
X51250Y32760D02*
X52250D01*
Y33760D01*
X51250D02*
X53250D01*
Y30760D02*
Y33760D01*
X51250Y30760D02*
X53250D01*
X51250D02*
Y33760D01*
X49511Y29688D02*
Y30217D01*
Y30522D02*
Y31068D01*
X48811Y30522D02*
Y31068D01*
Y29688D02*
Y30217D01*
Y31068D02*
X49511D01*
X48811Y29688D02*
X49511D01*
X31118Y40389D02*
Y41089D01*
X32498Y40389D02*
Y41089D01*
X31118D02*
X31647D01*
X31952D02*
X32498D01*
X31952Y40389D02*
X32498D01*
X31118D02*
X31647D01*
X33575Y40384D02*
X34103D01*
Y41094D01*
X33575D02*
X34103D01*
X32725D02*
X33270D01*
X32725Y40384D02*
X33270D01*
X32725D02*
Y41094D01*
X33893Y23200D02*
X36819D01*
X33893Y23013D02*
Y23200D01*
X36819Y22650D02*
Y23200D01*
X33893Y21900D02*
Y22087D01*
X36743Y22650D02*
X36819D01*
X36743D02*
Y23200D01*
Y21900D02*
Y22450D01*
X36819D01*
X33893Y21900D02*
X36819D01*
Y22450D01*
X35500Y22353D02*
Y22747D01*
X35224Y22707D02*
X35500Y22550D01*
X35224Y22353D02*
X35500Y22550D01*
X35224Y22353D02*
Y22707D01*
X35500Y22550D02*
X35539D01*
X35146D02*
X35224D01*
X38251Y27386D02*
X39569D01*
X38251Y29394D02*
X39569D01*
Y27386D02*
Y29394D01*
X38251Y27386D02*
Y29394D01*
X28300Y31212D02*
X28940D01*
X28300Y30188D02*
X28940D01*
X28300D02*
Y30365D01*
Y31035D02*
Y31212D01*
D18*
X46320Y24050D02*
X52510Y23980D01*
X37770Y24060D02*
X45940Y24050D01*
D19*
X38310Y36768D02*
Y36818D01*
X37410D02*
X38310D01*
X37410Y36768D02*
Y36818D01*
X38310Y36118D02*
Y36168D01*
X37410Y36118D02*
X38310D01*
X37410D02*
Y36168D01*
X38290Y40178D02*
Y40228D01*
X37390D02*
X38290D01*
X37390Y40178D02*
Y40228D01*
X38290Y39528D02*
Y39578D01*
X37390Y39528D02*
X38290D01*
X37390D02*
Y39578D01*
X37720Y31430D02*
Y31480D01*
Y31430D02*
X38620D01*
Y31480D01*
X37720Y32080D02*
Y32130D01*
X38620D01*
Y32080D02*
Y32130D01*
D20*
X28320Y42240D02*
Y42690D01*
Y41230D02*
Y41680D01*
Y41230D02*
X30540D01*
X28320Y42690D02*
X30540D01*
X28930Y42210D02*
X29930D01*
Y41710D02*
Y42210D01*
X28930Y41710D02*
X29930D01*
X28930D02*
Y42210D01*
X30540Y42240D02*
Y42690D01*
Y41230D02*
Y41680D01*
X34181Y24949D02*
Y27114D01*
X34614Y27547D01*
X36346D01*
X36779Y24949D02*
Y27114D01*
X36346Y27547D02*
X36779Y27114D01*
X34181Y24949D02*
X36779D01*
X31461D02*
Y27114D01*
X31894Y27547D01*
X33626D01*
X34059Y24949D02*
Y27114D01*
X33626Y27547D02*
X34059Y27114D01*
X31461Y24949D02*
X34059D01*
X41900Y40840D02*
Y40540D01*
X42050D01*
X42100Y40590D01*
Y40790D01*
X42050Y40840D01*
X41900D01*
X42200D02*
X42300D01*
X42250D01*
Y40540D01*
X42200D01*
X42300D01*
X42650Y40790D02*
X42600Y40840D01*
X42500D01*
X42450Y40790D01*
Y40590D01*
X42500Y40540D01*
X42600D01*
X42650Y40590D01*
Y40690D01*
X42550D01*
X42750Y40840D02*
X42850D01*
X42800D01*
Y40540D01*
X42750D01*
X42850D01*
X43000Y40840D02*
X43200D01*
X43100D01*
Y40540D01*
X43300D02*
Y40740D01*
X43400Y40840D01*
X43499Y40740D01*
Y40540D01*
Y40690D01*
X43300D01*
X43599Y40840D02*
Y40540D01*
X43799D01*
X44199D02*
Y40840D01*
X44349D01*
X44399Y40790D01*
Y40690D01*
X44349Y40640D01*
X44199D01*
X44499Y40840D02*
Y40540D01*
X44599Y40640D01*
X44699Y40540D01*
Y40840D01*
X44799Y40540D02*
Y40840D01*
X44899Y40740D01*
X44999Y40840D01*
Y40540D01*
X45499D02*
X45399Y40640D01*
Y40740D01*
X45499Y40840D01*
X45649Y40790D02*
X45699Y40840D01*
X45799D01*
X45849Y40890D01*
X45949Y40540D02*
X46049Y40640D01*
Y40740D01*
X45949Y40840D01*
X38190Y41530D02*
Y41630D01*
Y41580D01*
X37890D01*
X37940Y41530D01*
Y41780D02*
X37890Y41830D01*
Y41930D01*
X37940Y41980D01*
X37990D01*
X38040Y41930D01*
Y41880D01*
Y41930D01*
X38090Y41980D01*
X38140D01*
X38190Y41930D01*
Y41830D01*
X38140Y41780D01*
X39230Y41560D02*
Y41660D01*
Y41610D01*
X38930D01*
X38980Y41560D01*
X39230Y42010D02*
Y41810D01*
X39030Y42010D01*
X38980D01*
X38930Y41960D01*
Y41860D01*
X38980Y41810D01*
X40000Y41370D02*
X39950Y41420D01*
Y41520D01*
X39900Y41570D01*
X40250Y41670D02*
Y41770D01*
Y41720D01*
X39950D01*
X40000Y41670D01*
X40250Y41920D02*
Y42020D01*
Y41970D01*
X39950D01*
X40000Y41920D01*
X40990Y41240D02*
X40940Y41290D01*
Y41390D01*
X40890Y41440D01*
X41240Y41540D02*
Y41640D01*
Y41590D01*
X40940D01*
X40990Y41540D01*
Y41790D02*
X40940Y41840D01*
Y41940D01*
X40990Y41990D01*
X41190D01*
X41240Y41940D01*
Y41840D01*
X41190Y41790D01*
X40990D01*
X42000Y41480D02*
X41950Y41530D01*
Y41630D01*
X41900Y41680D01*
X42200Y41780D02*
X42250Y41830D01*
Y41930D01*
X42200Y41980D01*
X42000D01*
X41950Y41930D01*
Y41830D01*
X42000Y41780D01*
X42050D01*
X42100Y41830D01*
Y41980D01*
X43030Y41780D02*
X42980Y41830D01*
Y41930D01*
X43030Y41980D01*
X43080D01*
X43130Y41930D01*
X43180Y41980D01*
X43230D01*
X43280Y41930D01*
Y41830D01*
X43230Y41780D01*
X43180D01*
X43130Y41830D01*
X43080Y41780D01*
X43030D01*
X43130Y41830D02*
Y41930D01*
X44410Y41770D02*
Y41970D01*
X44460D01*
X44660Y41770D01*
X44710D01*
X45450Y41470D02*
X45400Y41520D01*
Y41620D01*
X45350Y41670D01*
X45400Y41970D02*
X45450Y41870D01*
X45550Y41770D01*
X45650D01*
X45700Y41820D01*
Y41920D01*
X45650Y41970D01*
X45600D01*
X45550Y41920D01*
Y41770D01*
X46480Y41480D02*
X46430Y41530D01*
Y41630D01*
X46380Y41680D01*
X46430Y41980D02*
Y41780D01*
X46580D01*
X46530Y41880D01*
Y41930D01*
X46580Y41980D01*
X46680D01*
X46730Y41930D01*
Y41830D01*
X46680Y41780D01*
X47740Y41930D02*
X47440D01*
X47590Y41780D01*
Y41980D01*
X48440Y41480D02*
X48390Y41530D01*
Y41630D01*
X48340Y41680D01*
X48440Y41780D02*
X48390Y41830D01*
Y41930D01*
X48440Y41980D01*
X48490D01*
X48540Y41930D01*
Y41880D01*
Y41930D01*
X48590Y41980D01*
X48640D01*
X48690Y41930D01*
Y41830D01*
X48640Y41780D01*
X49700Y41970D02*
Y41770D01*
X49500Y41970D01*
X49450D01*
X49400Y41920D01*
Y41820D01*
X49450Y41770D01*
X51690Y40620D02*
X51390D01*
Y40770D01*
X51440Y40820D01*
X51540D01*
X51590Y40770D01*
Y40620D01*
Y40720D02*
X51690Y40820D01*
X51390Y40920D02*
X51690Y41120D01*
X51390D02*
X51690Y40920D01*
X51540Y41220D02*
Y41420D01*
Y41520D02*
Y41720D01*
X51440Y41820D02*
X51390Y41870D01*
Y41970D01*
X51440Y42020D01*
X51640D01*
X51690Y41970D01*
Y41870D01*
X51640Y41820D01*
X51440D01*
X50410Y40700D02*
Y40900D01*
Y40800D01*
X50710D01*
X50410Y41000D02*
X50710Y41200D01*
X50410D02*
X50710Y41000D01*
X50560Y41300D02*
Y41500D01*
Y41600D02*
Y41800D01*
X50710Y41900D02*
Y42000D01*
Y41950D01*
X50410D01*
X50460Y41900D01*
X48380Y24260D02*
Y24460D01*
X48480Y24560D01*
X48580Y24460D01*
Y24260D01*
Y24410D01*
X48380D01*
X48680Y24260D02*
Y24560D01*
X48880Y24260D01*
Y24560D01*
X48980Y24260D02*
Y24460D01*
X49080Y24560D01*
X49180Y24460D01*
Y24260D01*
Y24410D01*
X48980D01*
X49280Y24560D02*
Y24260D01*
X49480D01*
X49730Y24560D02*
X49630D01*
X49580Y24510D01*
Y24310D01*
X49630Y24260D01*
X49730D01*
X49780Y24310D01*
Y24510D01*
X49730Y24560D01*
X50079Y24510D02*
X50029Y24560D01*
X49929D01*
X49880Y24510D01*
Y24310D01*
X49929Y24260D01*
X50029D01*
X50079Y24310D01*
Y24410D01*
X49979D01*
X50479Y24560D02*
X50579D01*
X50529D01*
Y24260D01*
X50479D01*
X50579D01*
X50729D02*
Y24560D01*
X50929Y24260D01*
Y24560D01*
X41180Y24250D02*
Y24550D01*
X41330D01*
X41380Y24500D01*
Y24400D01*
X41330Y24350D01*
X41180D01*
X41630Y24550D02*
X41530D01*
X41480Y24500D01*
Y24300D01*
X41530Y24250D01*
X41630D01*
X41680Y24300D01*
Y24500D01*
X41630Y24550D01*
X41780D02*
Y24250D01*
X41880Y24350D01*
X41980Y24250D01*
Y24550D01*
X42280D02*
X42080D01*
Y24250D01*
X42280D01*
X42080Y24400D02*
X42180D01*
X42380Y24250D02*
Y24550D01*
X42530D01*
X42580Y24500D01*
Y24400D01*
X42530Y24350D01*
X42380D01*
X42480D02*
X42580Y24250D01*
X52090Y22850D02*
X51890D01*
X51790Y22950D01*
X51890Y23050D01*
X52090D01*
X51940D01*
Y22850D01*
X51790Y23350D02*
Y23150D01*
X51940D01*
X51890Y23250D01*
Y23300D01*
X51940Y23350D01*
X52040D01*
X52090Y23300D01*
Y23200D01*
X52040Y23150D01*
X51080Y22850D02*
X50880D01*
X50780Y22950D01*
X50880Y23050D01*
X51080D01*
X50930D01*
Y22850D01*
X51080Y23300D02*
X50780D01*
X50930Y23150D01*
Y23350D01*
X50050Y22850D02*
X49850D01*
X49750Y22950D01*
X49850Y23050D01*
X50050D01*
X49900D01*
Y22850D01*
X49800Y23150D02*
X49750Y23200D01*
Y23300D01*
X49800Y23350D01*
X49850D01*
X49900Y23300D01*
Y23250D01*
Y23300D01*
X49950Y23350D01*
X50000D01*
X50050Y23300D01*
Y23200D01*
X50000Y23150D01*
X49080Y22850D02*
X48880D01*
X48780Y22950D01*
X48880Y23050D01*
X49080D01*
X48930D01*
Y22850D01*
X49080Y23350D02*
Y23150D01*
X48880Y23350D01*
X48830D01*
X48780Y23300D01*
Y23200D01*
X48830Y23150D01*
X48040Y22850D02*
X47840D01*
X47740Y22950D01*
X47840Y23050D01*
X48040D01*
X47890D01*
Y22850D01*
X48040Y23150D02*
Y23250D01*
Y23200D01*
X47740D01*
X47790Y23150D01*
X47050Y22850D02*
X46850D01*
X46750Y22950D01*
X46850Y23050D01*
X47050D01*
X46900D01*
Y22850D01*
X46800Y23150D02*
X46750Y23200D01*
Y23300D01*
X46800Y23350D01*
X47000D01*
X47050Y23300D01*
Y23200D01*
X47000Y23150D01*
X46800D01*
X45300Y22860D02*
X45500D01*
X45600Y22960D01*
X45500Y23060D01*
X45300D01*
Y23160D02*
Y23260D01*
Y23210D01*
X45600D01*
Y23160D01*
Y23260D01*
Y23410D02*
X45300D01*
X45600Y23610D01*
X45300D01*
X44300Y23060D02*
X44250Y23010D01*
Y22910D01*
X44300Y22860D01*
X44500D01*
X44550Y22910D01*
Y23010D01*
X44500Y23060D01*
X44400D01*
Y22960D01*
X44550Y23160D02*
X44250D01*
X44550Y23360D01*
X44250D01*
Y23460D02*
X44550D01*
Y23610D01*
X44500Y23660D01*
X44300D01*
X44250Y23610D01*
Y23460D01*
X43290Y23060D02*
X43240Y23010D01*
Y22910D01*
X43290Y22860D01*
X43490D01*
X43540Y22910D01*
Y23010D01*
X43490Y23060D01*
X43390D01*
Y22960D01*
X43540Y23160D02*
X43240D01*
X43540Y23360D01*
X43240D01*
Y23460D02*
X43540D01*
Y23610D01*
X43490Y23660D01*
X43290D01*
X43240Y23610D01*
Y23460D01*
X42250Y23080D02*
Y22880D01*
X42400D01*
X42350Y22980D01*
Y23030D01*
X42400Y23080D01*
X42500D01*
X42550Y23030D01*
Y22930D01*
X42500Y22880D01*
X42250Y23180D02*
X42450D01*
X42550Y23280D01*
X42450Y23380D01*
X42250D01*
X41330Y22880D02*
X41280Y22930D01*
Y23030D01*
X41330Y23080D01*
X41380D01*
X41430Y23030D01*
Y22980D01*
Y23030D01*
X41480Y23080D01*
X41530D01*
X41580Y23030D01*
Y22930D01*
X41530Y22880D01*
X41580Y23180D02*
X41530D01*
Y23230D01*
X41580D01*
Y23180D01*
X41330Y23430D02*
X41280Y23480D01*
Y23580D01*
X41330Y23630D01*
X41380D01*
X41430Y23580D01*
Y23530D01*
Y23580D01*
X41480Y23630D01*
X41530D01*
X41580Y23580D01*
Y23480D01*
X41530Y23430D01*
X41280Y23730D02*
X41480D01*
X41580Y23830D01*
X41480Y23930D01*
X41280D01*
X39270Y23070D02*
Y22870D01*
X39420D01*
X39370Y22970D01*
Y23020D01*
X39420Y23070D01*
X39520D01*
X39570Y23020D01*
Y22920D01*
X39520Y22870D01*
X39270Y23170D02*
X39470D01*
X39570Y23270D01*
X39470Y23370D01*
X39270D01*
X40590Y22880D02*
X40290D01*
Y23030D01*
X40340Y23080D01*
X40440D01*
X40490Y23030D01*
Y22880D01*
Y22980D02*
X40590Y23080D01*
X40340Y23380D02*
X40290Y23330D01*
Y23230D01*
X40340Y23180D01*
X40390D01*
X40440Y23230D01*
Y23330D01*
X40490Y23380D01*
X40540D01*
X40590Y23330D01*
Y23230D01*
X40540Y23180D01*
X40290Y23480D02*
Y23680D01*
Y23580D01*
X40590D01*
X29130Y40720D02*
Y41020D01*
X29280D01*
X29330Y40970D01*
Y40870D01*
X29280Y40820D01*
X29130D01*
X29230D02*
X29330Y40720D01*
X29630Y40970D02*
X29580Y41020D01*
X29480D01*
X29430Y40970D01*
Y40920D01*
X29480Y40870D01*
X29580D01*
X29630Y40820D01*
Y40770D01*
X29580Y40720D01*
X29480D01*
X29430Y40770D01*
X29730Y41020D02*
X29930D01*
X29830D01*
Y40720D01*
X34950Y41520D02*
X34900Y41470D01*
Y41370D01*
X34950Y41320D01*
X35000D01*
X35050Y41370D01*
Y41470D01*
X35100Y41520D01*
X35150D01*
X35200Y41470D01*
Y41370D01*
X35150Y41320D01*
X34900Y41620D02*
X35200D01*
Y41770D01*
X35150Y41820D01*
X34950D01*
X34900Y41770D01*
Y41620D01*
X35200Y41920D02*
X35000D01*
X34900Y42020D01*
X35000Y42120D01*
X35200D01*
X35050D01*
Y41920D01*
X33960Y41520D02*
X33910Y41470D01*
Y41370D01*
X33960Y41320D01*
X34010D01*
X34060Y41370D01*
Y41470D01*
X34110Y41520D01*
X34160D01*
X34210Y41470D01*
Y41370D01*
X34160Y41320D01*
X33960Y41820D02*
X33910Y41770D01*
Y41670D01*
X33960Y41620D01*
X34160D01*
X34210Y41670D01*
Y41770D01*
X34160Y41820D01*
X33910Y41920D02*
X34210D01*
Y42120D01*
X36260Y40990D02*
X36060D01*
X35960Y41090D01*
X36060Y41190D01*
X36260D01*
X36110D01*
Y40990D01*
X36260Y41290D02*
X35960D01*
Y41440D01*
X36010Y41490D01*
X36110D01*
X36160Y41440D01*
Y41290D01*
Y41390D02*
X36260Y41490D01*
X35960Y41790D02*
Y41590D01*
X36260D01*
Y41790D01*
X36110Y41590D02*
Y41690D01*
X35960Y42090D02*
Y41890D01*
X36110D01*
Y41990D01*
Y41890D01*
X36260D01*
X36970Y41480D02*
X36920Y41430D01*
Y41330D01*
X36970Y41280D01*
X37170D01*
X37220Y41330D01*
Y41430D01*
X37170Y41480D01*
X37070D01*
Y41380D01*
X37220Y41580D02*
X36920D01*
X37220Y41780D01*
X36920D01*
Y41880D02*
X37220D01*
Y42030D01*
X37170Y42080D01*
X36970D01*
X36920Y42030D01*
Y41880D01*
D21*
X27200Y37728D02*
X27702D01*
X27200Y34628D02*
Y37728D01*
Y34628D02*
X27702D01*
X29350Y34628D02*
Y35428D01*
X28652Y34628D02*
X29350Y34628D01*
X29360Y36928D02*
X29360Y37728D01*
X28652D02*
X29360D01*
D22*
X35940Y37357D02*
Y37257D01*
Y37307D01*
X36240D01*
X36190Y37357D01*
X31875Y37329D02*
X31925Y37279D01*
Y37179D01*
X31875Y37129D01*
X31825D01*
X31775Y37179D01*
X31725Y37129D01*
X31675D01*
X31625Y37179D01*
Y37279D01*
X31675Y37329D01*
X31725D01*
X31775Y37279D01*
X31825Y37329D01*
X31875D01*
X31775Y37279D02*
Y37179D01*
X31723Y34221D02*
X31674Y34171D01*
Y34071D01*
X31723Y34021D01*
X31923D01*
X31973Y34071D01*
Y34171D01*
X31923Y34221D01*
X31873D01*
X31823Y34171D01*
Y34021D01*
X35990Y34507D02*
Y34407D01*
Y34457D01*
X36290D01*
X36240Y34507D01*
X36290Y34058D02*
X36240Y34158D01*
X36140Y34257D01*
X36040D01*
X35990Y34208D01*
Y34108D01*
X36040Y34058D01*
X36090D01*
X36140Y34108D01*
Y34257D01*
X45940Y32080D02*
X45990D01*
X46090Y32180D01*
X45990Y32280D01*
X45940D01*
X46090Y32180D02*
X46240D01*
Y32580D02*
Y32380D01*
X46040Y32580D01*
X45990D01*
X45940Y32530D01*
Y32430D01*
X45990Y32380D01*
X31550Y38090D02*
X31500D01*
X31400Y37990D01*
X31500Y37890D01*
X31550D01*
X31400Y37990D02*
X31250D01*
Y37790D02*
Y37690D01*
Y37740D01*
X31550D01*
X31500Y37790D01*
X28890Y38010D02*
X29140D01*
X29190Y38060D01*
Y38160D01*
X29140Y38210D01*
X28890D01*
X28940Y38510D02*
X28890Y38460D01*
Y38360D01*
X28940Y38310D01*
X28990D01*
X29040Y38360D01*
Y38460D01*
X29090Y38510D01*
X29140D01*
X29190Y38460D01*
Y38360D01*
X29140Y38310D01*
X28890Y38610D02*
X29190D01*
Y38760D01*
X29140Y38810D01*
X29090D01*
X29040Y38760D01*
Y38610D01*
Y38760D01*
X28990Y38810D01*
X28940D01*
X28890Y38760D01*
Y38610D01*
X29190Y38910D02*
Y39010D01*
Y38960D01*
X28890D01*
X28940Y38910D01*
X31750Y35740D02*
X31500D01*
X31450Y35690D01*
Y35590D01*
X31500Y35540D01*
X31750D01*
X31450Y35240D02*
Y35440D01*
X31650Y35240D01*
X31700D01*
X31750Y35290D01*
Y35390D01*
X31700Y35440D01*
X41340Y34320D02*
Y34070D01*
X41390Y34020D01*
X41490D01*
X41540Y34070D01*
Y34320D01*
X41640Y34020D02*
X41740D01*
X41690D01*
Y34320D01*
X41640Y34270D01*
X49620Y32565D02*
X49920D01*
Y32415D01*
X49870Y32365D01*
X49770D01*
X49720Y32415D01*
Y32565D01*
Y32465D02*
X49620Y32365D01*
Y32265D02*
Y32165D01*
Y32215D01*
X49920D01*
X49870Y32265D01*
Y32015D02*
X49920Y31965D01*
Y31865D01*
X49870Y31815D01*
X49670D01*
X49620Y31865D01*
Y31965D01*
X49670Y32015D01*
X49870D01*
X39900Y38830D02*
X40200D01*
Y38680D01*
X40150Y38630D01*
X40050D01*
X40000Y38680D01*
Y38830D01*
Y38730D02*
X39900Y38630D01*
X39950Y38530D02*
X39900Y38480D01*
Y38380D01*
X39950Y38330D01*
X40150D01*
X40200Y38380D01*
Y38480D01*
X40150Y38530D01*
X40100D01*
X40050Y38480D01*
Y38330D01*
X32770Y41410D02*
Y41710D01*
X32920D01*
X32970Y41660D01*
Y41560D01*
X32920Y41510D01*
X32770D01*
X32870D02*
X32970Y41410D01*
X33070Y41660D02*
X33120Y41710D01*
X33220D01*
X33270Y41660D01*
Y41610D01*
X33220Y41560D01*
X33270Y41510D01*
Y41460D01*
X33220Y41410D01*
X33120D01*
X33070Y41460D01*
Y41510D01*
X33120Y41560D01*
X33070Y41610D01*
Y41660D01*
X33120Y41560D02*
X33220D01*
X38710Y40530D02*
Y40830D01*
X38860D01*
X38910Y40780D01*
Y40680D01*
X38860Y40630D01*
X38710D01*
X38810D02*
X38910Y40530D01*
X39010Y40830D02*
X39210D01*
Y40780D01*
X39010Y40580D01*
Y40530D01*
X36500Y37170D02*
Y37470D01*
X36650D01*
X36700Y37420D01*
Y37320D01*
X36650Y37270D01*
X36500D01*
X36600D02*
X36700Y37170D01*
X37000Y37470D02*
X36900Y37420D01*
X36800Y37320D01*
Y37220D01*
X36850Y37170D01*
X36950D01*
X37000Y37220D01*
Y37270D01*
X36950Y37320D01*
X36800D01*
X36430Y38870D02*
Y39170D01*
X36580D01*
X36630Y39120D01*
Y39020D01*
X36580Y38970D01*
X36430D01*
X36530D02*
X36630Y38870D01*
X36930Y39170D02*
X36730D01*
Y39020D01*
X36830Y39070D01*
X36880D01*
X36930Y39020D01*
Y38920D01*
X36880Y38870D01*
X36780D01*
X36730Y38920D01*
X36500Y35550D02*
Y35850D01*
X36650D01*
X36700Y35800D01*
Y35700D01*
X36650Y35650D01*
X36500D01*
X36600D02*
X36700Y35550D01*
X36950D02*
Y35850D01*
X36800Y35700D01*
X37000D01*
X36330Y32250D02*
Y32550D01*
X36480D01*
X36530Y32500D01*
Y32400D01*
X36480Y32350D01*
X36330D01*
X36430D02*
X36530Y32250D01*
X36630Y32500D02*
X36680Y32550D01*
X36780D01*
X36830Y32500D01*
Y32450D01*
X36780Y32400D01*
X36730D01*
X36780D01*
X36830Y32350D01*
Y32300D01*
X36780Y32250D01*
X36680D01*
X36630Y32300D01*
X39140Y32250D02*
Y32550D01*
X39290D01*
X39340Y32500D01*
Y32400D01*
X39290Y32350D01*
X39140D01*
X39240D02*
X39340Y32250D01*
X39640D02*
X39440D01*
X39640Y32450D01*
Y32500D01*
X39590Y32550D01*
X39490D01*
X39440Y32500D01*
X34430Y32250D02*
Y32550D01*
X34580D01*
X34630Y32500D01*
Y32400D01*
X34580Y32350D01*
X34430D01*
X34530D02*
X34630Y32250D01*
X34730D02*
X34830D01*
X34780D01*
Y32550D01*
X34730Y32500D01*
X28350Y31610D02*
Y31810D01*
X28300Y31860D01*
X28200D01*
X28150Y31810D01*
Y31610D01*
X28200Y31560D01*
X28300D01*
X28250Y31660D02*
X28350Y31560D01*
X28300D02*
X28350Y31610D01*
X28450Y31560D02*
X28550D01*
X28500D01*
Y31860D01*
X28450Y31810D01*
X36450Y40030D02*
Y39730D01*
X36650D01*
X36750Y39980D02*
X36800Y40030D01*
X36900D01*
X36950Y39980D01*
Y39930D01*
X36900Y39880D01*
X36850D01*
X36900D01*
X36950Y39830D01*
Y39780D01*
X36900Y39730D01*
X36800D01*
X36750Y39780D01*
X36540Y36590D02*
Y36290D01*
X36740D01*
X37040D02*
X36840D01*
X37040Y36490D01*
Y36540D01*
X36990Y36590D01*
X36890D01*
X36840Y36540D01*
X37780Y32530D02*
Y32230D01*
X37980D01*
X38080D02*
X38180D01*
X38130D01*
Y32530D01*
X38080Y32480D01*
X52770Y21920D02*
Y21820D01*
Y21870D01*
X53020D01*
X53070Y21820D01*
Y21770D01*
X53020Y21720D01*
X53070Y22020D02*
X52770D01*
Y22170D01*
X52820Y22220D01*
X52920D01*
X52970Y22170D01*
Y22020D01*
X53020Y22320D02*
X53070Y22370D01*
Y22470D01*
X53020Y22520D01*
X52820D01*
X52770Y22470D01*
Y22370D01*
X52820Y22320D01*
X52870D01*
X52920Y22370D01*
Y22520D01*
X37300Y21950D02*
Y21850D01*
Y21900D01*
X37550D01*
X37600Y21850D01*
Y21800D01*
X37550Y21750D01*
X37600Y22050D02*
X37300D01*
Y22200D01*
X37350Y22250D01*
X37450D01*
X37500Y22200D01*
Y22050D01*
X37350Y22350D02*
X37300Y22400D01*
Y22500D01*
X37350Y22550D01*
X37400D01*
X37450Y22500D01*
X37500Y22550D01*
X37550D01*
X37600Y22500D01*
Y22400D01*
X37550Y22350D01*
X37500D01*
X37450Y22400D01*
X37400Y22350D01*
X37350D01*
X37450Y22400D02*
Y22500D01*
X31430Y32950D02*
Y32850D01*
Y32900D01*
X31680D01*
X31730Y32850D01*
Y32800D01*
X31680Y32750D01*
X31730Y33050D02*
X31430D01*
Y33200D01*
X31480Y33250D01*
X31580D01*
X31630Y33200D01*
Y33050D01*
X31430Y33350D02*
Y33550D01*
X31480D01*
X31680Y33350D01*
X31730D01*
X52400Y42540D02*
Y42440D01*
Y42490D01*
X52650D01*
X52700Y42440D01*
Y42390D01*
X52650Y42340D01*
X52700Y42640D02*
X52400D01*
Y42790D01*
X52450Y42840D01*
X52550D01*
X52600Y42790D01*
Y42640D01*
X52400Y43140D02*
X52450Y43040D01*
X52550Y42940D01*
X52650D01*
X52700Y42990D01*
Y43090D01*
X52650Y43140D01*
X52600D01*
X52550Y43090D01*
Y42940D01*
X32860Y42550D02*
Y42450D01*
Y42500D01*
X33110D01*
X33160Y42450D01*
Y42400D01*
X33110Y42350D01*
X33160Y42650D02*
X32860D01*
Y42800D01*
X32910Y42850D01*
X33010D01*
X33060Y42800D01*
Y42650D01*
X32860Y43150D02*
Y42950D01*
X33010D01*
X32960Y43050D01*
Y43100D01*
X33010Y43150D01*
X33110D01*
X33160Y43100D01*
Y43000D01*
X33110Y42950D01*
X48720Y27880D02*
Y27780D01*
Y27830D01*
X48970D01*
X49020Y27780D01*
Y27730D01*
X48970Y27680D01*
X49020Y27980D02*
X48720D01*
Y28130D01*
X48770Y28180D01*
X48870D01*
X48920Y28130D01*
Y27980D01*
X49020Y28430D02*
X48720D01*
X48870Y28280D01*
Y28480D01*
X48670Y26640D02*
Y26540D01*
Y26590D01*
X48920D01*
X48970Y26540D01*
Y26490D01*
X48920Y26440D01*
X48970Y26740D02*
X48670D01*
Y26890D01*
X48720Y26940D01*
X48820D01*
X48870Y26890D01*
Y26740D01*
X48720Y27040D02*
X48670Y27090D01*
Y27190D01*
X48720Y27240D01*
X48770D01*
X48820Y27190D01*
Y27140D01*
Y27190D01*
X48870Y27240D01*
X48920D01*
X48970Y27190D01*
Y27090D01*
X48920Y27040D01*
X48670Y25510D02*
Y25410D01*
Y25460D01*
X48920D01*
X48970Y25410D01*
Y25360D01*
X48920Y25310D01*
X48970Y25610D02*
X48670D01*
Y25760D01*
X48720Y25810D01*
X48820D01*
X48870Y25760D01*
Y25610D01*
X48970Y26110D02*
Y25910D01*
X48770Y26110D01*
X48720D01*
X48670Y26060D01*
Y25960D01*
X48720Y25910D01*
X51490Y34380D02*
X51390D01*
X51440D01*
Y34130D01*
X51390Y34080D01*
X51340D01*
X51290Y34130D01*
X51590Y34080D02*
Y34380D01*
X51740D01*
X51790Y34330D01*
Y34230D01*
X51740Y34180D01*
X51590D01*
X51890Y34080D02*
X51990D01*
X51940D01*
Y34380D01*
X51890Y34330D01*
X24980Y26470D02*
X24880D01*
X24930D01*
Y26220D01*
X24880Y26170D01*
X24830D01*
X24780Y26220D01*
X25080Y26170D02*
Y26370D01*
X25180Y26470D01*
X25280Y26370D01*
Y26170D01*
Y26320D01*
X25080D01*
X25580Y26420D02*
X25530Y26470D01*
X25430D01*
X25380Y26420D01*
Y26220D01*
X25430Y26170D01*
X25530D01*
X25580Y26220D01*
X25680Y26470D02*
Y26170D01*
Y26270D01*
X25880Y26470D01*
X25730Y26320D01*
X25880Y26170D01*
X26280Y26470D02*
Y26170D01*
X26429D01*
X26479Y26220D01*
Y26420D01*
X26429Y26470D01*
X26280D01*
X26779Y26420D02*
X26729Y26470D01*
X26629D01*
X26579Y26420D01*
Y26220D01*
X26629Y26170D01*
X26729D01*
X26779Y26220D01*
X26879Y26170D02*
X26979D01*
X26929D01*
Y26470D01*
X26879Y26420D01*
X37430Y30190D02*
X37530D01*
X37480D01*
Y29890D01*
X37430D01*
X37530D01*
X37880Y30140D02*
X37830Y30190D01*
X37730D01*
X37680Y30140D01*
Y29940D01*
X37730Y29890D01*
X37830D01*
X37880Y29940D01*
X37980Y29890D02*
X38080D01*
X38030D01*
Y30190D01*
X37980Y30140D01*
X29650Y32600D02*
Y32400D01*
X29800D01*
Y32500D01*
Y32400D01*
X29950D01*
Y32700D02*
Y32800D01*
Y32750D01*
X29650D01*
X29700Y32700D01*
X33930Y23830D02*
Y23530D01*
X34080D01*
X34130Y23580D01*
Y23780D01*
X34080Y23830D01*
X33930D01*
X34230Y23530D02*
X34330D01*
X34280D01*
Y23830D01*
X34230Y23780D01*
X40130Y37415D02*
X40180Y37465D01*
Y37565D01*
X40130Y37615D01*
X39930D01*
X39880Y37565D01*
Y37465D01*
X39930Y37415D01*
X39880Y37315D02*
Y37215D01*
Y37265D01*
X40180D01*
X40130Y37315D01*
X40180Y36865D02*
Y37065D01*
X40030D01*
X40080Y36965D01*
Y36915D01*
X40030Y36865D01*
X39930D01*
X39880Y36915D01*
Y37015D01*
X39930Y37065D01*
X40100Y35495D02*
X40150Y35545D01*
Y35645D01*
X40100Y35695D01*
X39900D01*
X39850Y35645D01*
Y35545D01*
X39900Y35495D01*
X39850Y35395D02*
Y35295D01*
Y35345D01*
X40150D01*
X40100Y35395D01*
X39850Y34995D02*
X40150D01*
X40000Y35145D01*
Y34945D01*
X36395Y38270D02*
X36345Y38320D01*
X36245D01*
X36195Y38270D01*
Y38070D01*
X36245Y38020D01*
X36345D01*
X36395Y38070D01*
X36495Y38020D02*
X36595D01*
X36545D01*
Y38320D01*
X36495Y38270D01*
X36745D02*
X36795Y38320D01*
X36895D01*
X36945Y38270D01*
Y38220D01*
X36895Y38170D01*
X36845D01*
X36895D01*
X36945Y38120D01*
Y38070D01*
X36895Y38020D01*
X36795D01*
X36745Y38070D01*
X48915Y35220D02*
X48865Y35270D01*
X48765D01*
X48715Y35220D01*
Y35020D01*
X48765Y34970D01*
X48865D01*
X48915Y35020D01*
X49015Y34970D02*
X49115D01*
X49065D01*
Y35270D01*
X49015Y35220D01*
X49465Y34970D02*
X49265D01*
X49465Y35170D01*
Y35220D01*
X49415Y35270D01*
X49315D01*
X49265Y35220D01*
X50415Y31790D02*
X50365Y31840D01*
X50265D01*
X50215Y31790D01*
Y31590D01*
X50265Y31540D01*
X50365D01*
X50415Y31590D01*
X50515Y31540D02*
X50615D01*
X50565D01*
Y31840D01*
X50515Y31790D01*
X50765Y31540D02*
X50865D01*
X50815D01*
Y31840D01*
X50765Y31790D01*
X37635Y34160D02*
X37585Y34210D01*
X37485D01*
X37435Y34160D01*
Y33960D01*
X37485Y33910D01*
X37585D01*
X37635Y33960D01*
X37735Y33910D02*
X37835D01*
X37785D01*
Y34210D01*
X37735Y34160D01*
X37985D02*
X38035Y34210D01*
X38135D01*
X38185Y34160D01*
Y33960D01*
X38135Y33910D01*
X38035D01*
X37985Y33960D01*
Y34160D01*
X49960Y30390D02*
X50010Y30440D01*
Y30540D01*
X49960Y30590D01*
X49760D01*
X49710Y30540D01*
Y30440D01*
X49760Y30390D01*
Y30290D02*
X49710Y30240D01*
Y30140D01*
X49760Y30090D01*
X49960D01*
X50010Y30140D01*
Y30240D01*
X49960Y30290D01*
X49910D01*
X49860Y30240D01*
Y30090D01*
X31360Y41660D02*
X31310Y41710D01*
X31210D01*
X31160Y41660D01*
Y41460D01*
X31210Y41410D01*
X31310D01*
X31360Y41460D01*
X31460Y41660D02*
X31510Y41710D01*
X31610D01*
X31660Y41660D01*
Y41610D01*
X31610Y41560D01*
X31660Y41510D01*
Y41460D01*
X31610Y41410D01*
X31510D01*
X31460Y41460D01*
Y41510D01*
X31510Y41560D01*
X31460Y41610D01*
Y41660D01*
X31510Y41560D02*
X31610D01*
X36260Y40630D02*
X36210Y40680D01*
X36110D01*
X36060Y40630D01*
Y40430D01*
X36110Y40380D01*
X36210D01*
X36260Y40430D01*
X36360Y40680D02*
X36560D01*
Y40630D01*
X36360Y40430D01*
Y40380D01*
X40720Y27200D02*
X40670Y27250D01*
X40570D01*
X40520Y27200D01*
Y27000D01*
X40570Y26950D01*
X40670D01*
X40720Y27000D01*
X41020Y27250D02*
X40920Y27200D01*
X40820Y27100D01*
Y27000D01*
X40870Y26950D01*
X40970D01*
X41020Y27000D01*
Y27050D01*
X40970Y27100D01*
X40820D01*
X39800Y27210D02*
X39750Y27260D01*
X39650D01*
X39600Y27210D01*
Y27010D01*
X39650Y26960D01*
X39750D01*
X39800Y27010D01*
X40100Y27260D02*
X39900D01*
Y27110D01*
X40000Y27160D01*
X40050D01*
X40100Y27110D01*
Y27010D01*
X40050Y26960D01*
X39950D01*
X39900Y27010D01*
X38770Y27210D02*
X38720Y27260D01*
X38620D01*
X38570Y27210D01*
Y27010D01*
X38620Y26960D01*
X38720D01*
X38770Y27010D01*
X39020Y26960D02*
Y27260D01*
X38870Y27110D01*
X39070D01*
X37748Y27199D02*
X37698Y27249D01*
X37598D01*
X37548Y27199D01*
Y26999D01*
X37598Y26949D01*
X37698D01*
X37748Y26999D01*
X37848Y27199D02*
X37898Y27249D01*
X37998D01*
X38048Y27199D01*
Y27149D01*
X37998Y27099D01*
X37948D01*
X37998D01*
X38048Y27049D01*
Y26999D01*
X37998Y26949D01*
X37898D01*
X37848Y26999D01*
X34630Y28070D02*
X34580Y28120D01*
X34480D01*
X34430Y28070D01*
Y27870D01*
X34480Y27820D01*
X34580D01*
X34630Y27870D01*
X34930Y27820D02*
X34730D01*
X34930Y28020D01*
Y28070D01*
X34880Y28120D01*
X34780D01*
X34730Y28070D01*
X31850Y28100D02*
X31800Y28150D01*
X31700D01*
X31650Y28100D01*
Y27900D01*
X31700Y27850D01*
X31800D01*
X31850Y27900D01*
X31950Y27850D02*
X32050D01*
X32000D01*
Y28150D01*
X31950Y28100D01*
X29130Y43210D02*
Y42910D01*
X29280D01*
X29330Y42960D01*
Y43010D01*
X29280Y43060D01*
X29130D01*
X29280D01*
X29330Y43110D01*
Y43160D01*
X29280Y43210D01*
X29130D01*
X29430D02*
X29630D01*
X29530D01*
Y42910D01*
X29730D02*
X29830D01*
X29780D01*
Y43210D01*
X29730Y43160D01*
X28480Y28930D02*
Y29130D01*
X28580Y29230D01*
X28680Y29130D01*
Y28930D01*
Y29080D01*
X28480D01*
X28780Y28930D02*
Y29230D01*
X28880Y29130D01*
X28980Y29230D01*
Y28930D01*
X29280Y29180D02*
X29230Y29230D01*
X29130D01*
X29080Y29180D01*
Y29130D01*
X29130Y29080D01*
X29230D01*
X29280Y29030D01*
Y28980D01*
X29230Y28930D01*
X29130D01*
X29080Y28980D01*
X29580Y28930D02*
X29380D01*
X29580Y29130D01*
Y29180D01*
X29530Y29230D01*
X29430D01*
X29380Y29180D01*
X31980Y31550D02*
Y31750D01*
X32080Y31850D01*
X32180Y31750D01*
Y31550D01*
Y31700D01*
X31980D01*
X32280Y31550D02*
Y31850D01*
X32380Y31750D01*
X32480Y31850D01*
Y31550D01*
X32780Y31800D02*
X32730Y31850D01*
X32630D01*
X32580Y31800D01*
Y31750D01*
X32630Y31700D01*
X32730D01*
X32780Y31650D01*
Y31600D01*
X32730Y31550D01*
X32630D01*
X32580Y31600D01*
X32880Y31550D02*
X32980D01*
X32930D01*
Y31850D01*
X32880Y31800D01*
D23*
X29429Y41960D02*
D03*
M02*
