G04*
G04 #@! TF.GenerationSoftware,Altium Limited,Altium Designer,21.2.1 (34)*
G04*
G04 Layer_Color=128*
%FSLAX24Y24*%
%MOIN*%
G70*
G04*
G04 #@! TF.SameCoordinates,2A4B76D5-AD1C-46BA-8FB2-2B46C924C6B9*
G04*
G04*
G04 #@! TF.FilePolarity,Positive*
G04*
G01*
G75*
%ADD87C,0.0020*%
D87*
X31630Y42630D02*
X32330D01*
X31980Y42280D02*
Y42980D01*
X31630Y22140D02*
X32330D01*
X31980Y21790D02*
Y22490D01*
X52420Y41240D02*
X53120D01*
X52770Y40890D02*
Y41590D01*
X51359Y42740D02*
X51761D01*
X51560Y42539D02*
Y42941D01*
X50359Y42740D02*
X50761D01*
X50560Y42539D02*
Y42941D01*
X49359Y42740D02*
X49761D01*
X49560Y42539D02*
Y42941D01*
X48359Y42740D02*
X48761D01*
X48560Y42539D02*
Y42941D01*
X47359Y42740D02*
X47761D01*
X47560Y42539D02*
Y42941D01*
X46359Y42740D02*
X46761D01*
X46560Y42539D02*
Y42941D01*
X45359Y42740D02*
X45761D01*
X45560Y42539D02*
Y42941D01*
X44359Y42740D02*
X44761D01*
X44560Y42539D02*
Y42941D01*
X40849Y42740D02*
X41251D01*
X41050Y42539D02*
Y42941D01*
X33849Y42740D02*
X34251D01*
X34050Y42539D02*
Y42941D01*
X34849Y42740D02*
X35251D01*
X35050Y42539D02*
Y42941D01*
X35849Y42740D02*
X36251D01*
X36050Y42539D02*
Y42941D01*
X36849Y42740D02*
X37251D01*
X37050Y42539D02*
Y42941D01*
X37849Y42740D02*
X38251D01*
X38050Y42539D02*
Y42941D01*
X38849Y42740D02*
X39251D01*
X39050Y42539D02*
Y42941D01*
X39849Y42740D02*
X40251D01*
X40050Y42539D02*
Y42941D01*
X41849Y42740D02*
X42251D01*
X42050Y42539D02*
Y42941D01*
X42849Y42740D02*
X43251D01*
X43050Y42539D02*
Y42941D01*
X51749Y22150D02*
X52151D01*
X51950Y21949D02*
Y22351D01*
X50749Y22150D02*
X51151D01*
X50950Y21949D02*
Y22351D01*
X49749Y22150D02*
X50151D01*
X49950Y21949D02*
Y22351D01*
X48749Y22150D02*
X49151D01*
X48950Y21949D02*
Y22351D01*
X47749Y22150D02*
X48151D01*
X47950Y21949D02*
Y22351D01*
X46749Y22150D02*
X47151D01*
X46950Y21949D02*
Y22351D01*
X38209Y22150D02*
X38611D01*
X38410Y21949D02*
Y22351D01*
X39209Y22150D02*
X39611D01*
X39410Y21949D02*
Y22351D01*
X40209Y22150D02*
X40611D01*
X40410Y21949D02*
Y22351D01*
X41209Y22150D02*
X41611D01*
X41410Y21949D02*
Y22351D01*
X42209Y22150D02*
X42611D01*
X42410Y21949D02*
Y22351D01*
X43209Y22150D02*
X43611D01*
X43410Y21949D02*
Y22351D01*
X44209Y22150D02*
X44611D01*
X44410Y21949D02*
Y22351D01*
X45209Y22150D02*
X45611D01*
X45410Y21949D02*
Y22351D01*
X49533Y25690D02*
X49967D01*
X49750Y25473D02*
Y25907D01*
X50533Y25690D02*
X50967D01*
X50750Y25473D02*
Y25907D01*
X51533Y25690D02*
X51967D01*
X51750Y25473D02*
Y25907D01*
X52533Y25690D02*
X52967D01*
X52750Y25473D02*
Y25907D01*
X49523Y26880D02*
X49957D01*
X49740Y26663D02*
Y27097D01*
X50523Y26880D02*
X50957D01*
X50740Y26663D02*
Y27097D01*
X51523Y26880D02*
X51957D01*
X51740Y26663D02*
Y27097D01*
X52523Y26880D02*
X52957D01*
X52740Y26663D02*
Y27097D01*
X35203Y33140D02*
X35637D01*
X35420Y32923D02*
Y33357D01*
X34203Y33140D02*
X34637D01*
X34420Y32923D02*
Y33357D01*
X33203Y33140D02*
X33637D01*
X33420Y32923D02*
Y33357D01*
X32203Y33140D02*
X32637D01*
X32420Y32923D02*
Y33357D01*
X49523Y28080D02*
X49957D01*
X49740Y27863D02*
Y28297D01*
X50523Y28080D02*
X50957D01*
X50740Y27863D02*
Y28297D01*
X51523Y28080D02*
X51957D01*
X51740Y27863D02*
Y28297D01*
X52523Y28080D02*
X52957D01*
X52740Y27863D02*
Y28297D01*
X52533Y33260D02*
X52967D01*
X52750Y33043D02*
Y33477D01*
X52533Y32260D02*
X52967D01*
X52750Y32043D02*
Y32477D01*
X52533Y31260D02*
X52967D01*
X52750Y31043D02*
Y31477D01*
X51533Y33260D02*
X51967D01*
X51750Y33043D02*
Y33477D01*
X51533Y32260D02*
X51967D01*
X51750Y32043D02*
Y32477D01*
X51533Y31260D02*
X51967D01*
X51750Y31043D02*
Y31477D01*
X29945Y24200D02*
X30535D01*
X30240Y23905D02*
Y24495D01*
X27445Y24200D02*
X28035D01*
X27740Y23905D02*
Y24495D01*
X28945Y22200D02*
X29535D01*
X29240Y21905D02*
Y22495D01*
X29540Y35370D02*
X29640D01*
X29590Y35320D02*
Y35420D01*
X33975Y41970D02*
X34125D01*
X34050Y41895D02*
Y42045D01*
X34975Y41970D02*
X35125D01*
X35050Y41895D02*
Y42045D01*
X36985Y41930D02*
X37135D01*
X37060Y41855D02*
Y42005D01*
X39715Y42010D02*
X39865D01*
X39790Y41935D02*
Y42085D01*
X36690Y40680D02*
X36790D01*
X36740Y40630D02*
Y40730D01*
X34950Y37860D02*
X35050D01*
X35000Y37810D02*
Y37910D01*
X39840Y37830D02*
X39940D01*
X39890Y37780D02*
Y37880D01*
X32365Y29330D02*
X32515D01*
X32440Y29255D02*
Y29405D01*
X34469Y29154D02*
X34619D01*
X34544Y29079D02*
Y29229D01*
X34811Y30966D02*
X34961D01*
X34886Y30891D02*
Y31041D01*
X42320Y32180D02*
X42420D01*
X42370Y32130D02*
Y32230D01*
X44340Y31870D02*
X44440D01*
X44390Y31820D02*
Y31920D01*
X44320Y32500D02*
X44420D01*
X44370Y32450D02*
Y32550D01*
X44210Y33110D02*
X44310D01*
X44260Y33060D02*
Y33160D01*
X42835Y31500D02*
X42985D01*
X42910Y31425D02*
Y31575D01*
X50135Y33896D02*
X50285D01*
X50210Y33821D02*
Y33971D01*
X50035Y34510D02*
X50185D01*
X50110Y34435D02*
Y34585D01*
X48445Y29980D02*
X48595D01*
X48520Y29905D02*
Y30055D01*
X46305Y27300D02*
X46455D01*
X46380Y27225D02*
Y27375D01*
X43485Y32790D02*
X43635D01*
X43560Y32715D02*
Y32865D01*
X41150Y33130D02*
X41250D01*
X41200Y33080D02*
Y33180D01*
X44230Y33450D02*
X44330D01*
X44280Y33400D02*
Y33500D01*
X42395Y32780D02*
X42545D01*
X42470Y32705D02*
Y32855D01*
X39905Y36560D02*
X40055D01*
X39980Y36485D02*
Y36635D01*
X28802Y34623D02*
X28952D01*
X28877Y34548D02*
Y34698D01*
X46645Y35260D02*
X46795D01*
X46720Y35185D02*
Y35335D01*
X47265Y35770D02*
X47415D01*
X47340Y35695D02*
Y35845D01*
X41623Y24908D02*
X41773D01*
X41698Y24833D02*
Y24983D01*
X41645Y24080D02*
X41795D01*
X41720Y24005D02*
Y24155D01*
X36985Y27850D02*
X37135D01*
X37060Y27775D02*
Y27925D01*
X36355Y27900D02*
X36505D01*
X36430Y27825D02*
Y27975D01*
X37295Y31050D02*
X37445D01*
X37370Y30975D02*
Y31125D01*
X39895Y23610D02*
X40045D01*
X39970Y23535D02*
Y23685D01*
X40360Y23400D02*
X40460D01*
X40410Y23350D02*
Y23450D01*
X39773Y24908D02*
X39923D01*
X39848Y24833D02*
Y24983D01*
X35550Y32490D02*
X35650D01*
X35600Y32440D02*
Y32540D01*
X39720Y33140D02*
X39820D01*
X39770Y33090D02*
Y33190D01*
X42505Y40170D02*
X42655D01*
X42580Y40095D02*
Y40245D01*
X48825Y25680D02*
X48975D01*
X48900Y25605D02*
Y25755D01*
X42335Y23640D02*
X42485D01*
X42410Y23565D02*
Y23715D01*
X49055Y29270D02*
X49205D01*
X49130Y29195D02*
Y29345D01*
X45325Y23000D02*
X45475D01*
X45400Y22925D02*
Y23075D01*
X50040Y31160D02*
X50140D01*
X50090Y31110D02*
Y31210D01*
X35690Y36220D02*
X35790D01*
X35740Y36170D02*
Y36270D01*
X38890Y34050D02*
X38990D01*
X38940Y34000D02*
Y34100D01*
X36345Y23550D02*
X36495D01*
X36420Y23475D02*
Y23625D01*
X46633Y30627D02*
X46733D01*
X46683Y30577D02*
Y30677D01*
X46617Y33973D02*
X46717D01*
X46667Y33923D02*
Y34023D01*
X33595Y25730D02*
X33745D01*
X33670Y25655D02*
Y25805D01*
X31825Y27390D02*
X31975D01*
X31900Y27315D02*
Y27465D01*
X40880Y27640D02*
X40980D01*
X40930Y27590D02*
Y27690D01*
M02*
